<svg xmlns="http://www.w3.org/2000/svg" width="17" height="17" fill="none" fill-rule="evenodd" xmlns:v="https://vecta.io/nano"><path d="M12.578 7.504a.41.41 0 0 0-.374-.242h-3.39l2.926-5.149a.41.41 0 0 0-.356-.613H6.47a.41.41 0 0 0-.388.28l-2.458 7.4a.41.41 0 0 0 .388.539h3.475L5.274 14.91a.41.41 0 0 0 .157.507c.072.046.155.066.237.062v.002h.795v-.71l6.047-6.828a.41.41 0 0 0 .068-.44z" fill="#e0a82b"/><path d="M13.052 7.262h-3.39l2.926-5.149a.41.41 0 0 0-.356-.613H7.317a.41.41 0 0 0-.388.28l-2.458 7.4a.41.41 0 0 0 .388.539h3.475L6.122 14.91a.41.41 0 0 0 .682.433l6.554-7.4a.41.41 0 0 0-.306-.682z" fill="#fdc32e"/></svg>