<svg width="56" height="46" viewBox="0 0 56 46" fill="none" xmlns="http://www.w3.org/2000/svg">
<path fill-rule="evenodd" clip-rule="evenodd" d="M27.7759 15.0078L33.9759 18.2895C33.9759 18.2895 34.3726 18.4535 35.1179 18.4535C35.6603 18.4535 35.6075 19.1099 35.6075 19.1099C35.6075 19.1099 35.2468 19.1443 34.9548 19.4381C34.4653 19.9302 33.8126 19.1099 33.8126 19.1099L29.4075 17.3051C28.2002 17.1657 27.2821 16.7533 27.7759 15.0078Z" fill="#EF998B"/>
<path fill-rule="evenodd" clip-rule="evenodd" d="M34.7912 19.4376L35.7862 19.855L36.0965 19.4376L35.1496 18.9615C35.1272 18.9503 35.1042 18.9426 35.0793 18.939C34.9241 18.9162 34.465 18.9453 34.7912 19.4376Z" fill="#565A5B"/>
<path fill-rule="evenodd" clip-rule="evenodd" d="M24.4793 7.78906L23.6963 9.59403L25.7979 10.4928L26.633 8.4454L24.4793 7.78906Z" fill="#FEC5B5"/>
<path fill-rule="evenodd" clip-rule="evenodd" d="M31.6913 35.6817C31.6913 35.6817 30.9461 36.6661 31.4818 37.8148H33.8124C33.9676 37.9576 35.6919 36.9085 36.2344 35.7298C36.4228 34.6973 34.6282 36.174 34.6282 36.174L33.1597 35.5177L31.6913 35.6817Z" fill="#929B9B"/>
<mask id="mask0_6269_52555" style="mask-type:alpha" maskUnits="userSpaceOnUse" x="-1" y="2" width="63" height="44">
<path fill-rule="evenodd" clip-rule="evenodd" d="M-0.444336 45.7423H61.5864V2.23047H-0.444336V45.7423Z" fill="white"/>
</mask>
<g mask="url(#mask0_6269_52555)">
<path fill-rule="evenodd" clip-rule="evenodd" d="M5.74902 21.5707H12.9279V19.1094H5.74902V21.5707Z" fill="#DBB08D"/>
<path fill-rule="evenodd" clip-rule="evenodd" d="M4.90918 21.5707H12.7588V19.1094H4.90918V21.5707Z" fill="#C19571"/>
<path fill-rule="evenodd" clip-rule="evenodd" d="M7.54395 28.6289L10.1123 30.4522C10.2249 30.5321 10.3807 30.5028 10.4571 30.3875L10.5105 30.3068C10.5846 30.1951 10.5559 30.0444 10.4462 29.9679L8.58583 28.6726C8.54486 28.6441 8.49623 28.6289 8.44645 28.6289H7.54395Z" fill="#565A5B"/>
<path fill-rule="evenodd" clip-rule="evenodd" d="M7.15963 32.7305H8.19711L6.72886 35.5198H5.59182C5.43751 35.5198 5.34485 35.3473 5.42966 35.2178L6.99766 32.8185C7.03346 32.7634 7.09434 32.7305 7.15963 32.7305Z" fill="#F76B6D"/>
<path fill-rule="evenodd" clip-rule="evenodd" d="M20.2429 39.8912C20.2429 43.1232 17.6376 45.7434 14.4237 45.7434C11.2098 45.7434 8.60449 43.1232 8.60449 39.8912C8.60449 36.659 11.2098 34.0391 14.4237 34.0391C17.6376 34.0391 20.2429 36.659 20.2429 39.8912Z" fill="#565A5B"/>
<path fill-rule="evenodd" clip-rule="evenodd" d="M50.115 39.8912C50.115 43.1232 47.5097 45.7434 44.2958 45.7434C41.0819 45.7434 38.4766 43.1232 38.4766 39.8912C38.4766 36.659 41.0819 34.0391 44.2958 34.0391C47.5097 34.0391 50.115 36.659 50.115 39.8912Z" fill="#565A5B"/>
<path fill-rule="evenodd" clip-rule="evenodd" d="M18.5592 39.8895C18.5592 42.1864 16.7077 44.0485 14.4237 44.0485C12.1396 44.0485 10.2881 42.1864 10.2881 39.8895C10.2881 37.5924 12.1396 35.7305 14.4237 35.7305C16.7077 35.7305 18.5592 37.5924 18.5592 39.8895Z" fill="#929B9B"/>
<path fill-rule="evenodd" clip-rule="evenodd" d="M48.4313 39.8895C48.4313 42.1864 46.5798 44.0485 44.2957 44.0485C42.0117 44.0485 40.1602 42.1864 40.1602 39.8895C40.1602 37.5924 42.0117 35.7305 44.2957 35.7305C46.5798 35.7305 48.4313 37.5924 48.4313 39.8895Z" fill="#929B9B"/>
<path fill-rule="evenodd" clip-rule="evenodd" d="M39.8491 20.2579C39.8491 21.1642 39.1187 21.8987 38.2175 21.8987C37.3163 21.8987 36.5859 21.1642 36.5859 20.2579C36.5859 19.3517 37.3163 18.6172 38.2175 18.6172C39.1187 18.6172 39.8491 19.3517 39.8491 20.2579Z" fill="#BDECFF"/>
<path fill-rule="evenodd" clip-rule="evenodd" d="M27.5721 28.6291H15.4152C14.8525 28.6291 14.3965 28.1703 14.3965 27.6045V27.5207C14.3965 26.9549 14.8525 26.4961 15.4152 26.4961H27.5721C28.1348 26.4961 28.591 26.9549 28.591 27.5207V27.6045C28.591 28.1703 28.1348 28.6291 27.5721 28.6291Z" fill="#FFC501"/>
<path fill-rule="evenodd" clip-rule="evenodd" d="M11.7859 28.6264H27.1289C27.1289 28.6264 21.4121 31.0877 25.0015 36.6664C25.0015 36.6664 25.9806 37.8151 27.6122 37.8151H33.9753C33.9753 37.8151 37.4015 36.5024 37.5647 30.9235C37.5647 30.9235 38.2173 30.2671 34.9542 22.063L35.6069 19.4377L36.0964 19.1094V18.2891H38.5437C38.5437 18.2891 38.7069 22.063 38.5437 22.063H36.912C36.912 22.063 43.112 30.4314 42.2962 32.4004C41.4804 34.3694 37.0753 39.4558 37.0753 39.4558H19.9437C19.9437 39.4558 16.3541 35.5178 16.3541 35.8461C16.3541 36.1741 9.33854 38.4714 9.33854 38.4714L6.8912 38.1432L6.56477 37.3228L5.91211 36.0101C5.91211 36.0101 9.17543 30.2671 11.7859 28.6264Z" fill="#31CEA3"/>
<path fill-rule="evenodd" clip-rule="evenodd" d="M3.75977 28.2978H13.9068V20.9141H3.75977V28.2978Z" fill="#DBB08D"/>
<path fill-rule="evenodd" clip-rule="evenodd" d="M13.6623 28.7931H3.38335C3.24818 28.7931 3.13867 28.6829 3.13867 28.547C3.13867 28.4111 3.24818 28.3008 3.38335 28.3008H13.6623C13.7974 28.3008 13.9069 28.4111 13.9069 28.547C13.9069 28.6829 13.7974 28.7931 13.6623 28.7931Z" fill="#565A5B"/>
<path fill-rule="evenodd" clip-rule="evenodd" d="M33.3801 21.2677L35.6153 19.8555C35.6153 19.8555 36.5858 20.0944 36.0964 20.9148L33.9508 22.2095C33.7222 22.3474 33.4247 22.3089 33.2472 22.1086C33.2428 22.1036 33.2386 22.0988 33.2344 22.0938C33.0188 21.8389 33.0984 21.4456 33.3801 21.2677Z" fill="#565A5B"/>
<path fill-rule="evenodd" clip-rule="evenodd" d="M35.6071 14.5978C35.6071 15.4588 35.2784 16.1565 34.8729 16.1565C34.4674 16.1565 34.1387 15.4588 34.1387 14.5978C34.1387 13.7368 34.4674 13.0391 34.8729 13.0391C35.2784 13.0391 35.6071 13.7368 35.6071 14.5978Z" fill="#BDECFF"/>
<path fill-rule="evenodd" clip-rule="evenodd" d="M7.05473 37.4884H5.37014C5.03892 37.4884 4.77051 37.2185 4.77051 36.8856V36.6145C4.77051 36.2816 5.03892 36.0117 5.37014 36.0117H7.05473V37.4884Z" fill="#565A5B"/>
<path fill-rule="evenodd" clip-rule="evenodd" d="M15.7615 39.8888C15.7615 40.6319 15.1622 41.2345 14.4232 41.2345C13.684 41.2345 13.085 40.6319 13.085 39.8888C13.085 39.1454 13.684 38.543 14.4232 38.543C15.1622 38.543 15.7615 39.1454 15.7615 39.8888Z" fill="#565A5B"/>
<path fill-rule="evenodd" clip-rule="evenodd" d="M49.0892 35.1352C49.4445 35.1719 49.6883 34.7711 49.4811 34.4785C48.1654 32.6211 45.9672 31.4401 43.5018 31.5545C39.928 31.7205 37.0317 34.6646 36.9021 38.2601C36.8791 38.9028 36.9425 39.527 37.0815 40.1217C37.1864 40.5703 37.7002 40.7938 38.0992 40.567C41.7432 38.4958 42.0355 34.403 49.0892 35.1352Z" fill="#FFC501"/>
<path fill-rule="evenodd" clip-rule="evenodd" d="M45.6345 39.8888C45.6345 40.6319 45.0353 41.2345 44.2963 41.2345C43.5571 41.2345 42.958 40.6319 42.958 39.8888C42.958 39.1454 43.5571 38.543 44.2963 38.543C45.0353 38.543 45.6345 39.1454 45.6345 39.8888Z" fill="#565A5B"/>
<path fill-rule="evenodd" clip-rule="evenodd" d="M35.5746 14.8252C35.9106 14.7097 36.2612 14.8974 36.4567 15.1768C36.6659 15.4758 36.7335 15.8485 36.804 16.1997C36.8838 16.5973 36.9738 16.9925 37.0768 17.3845C37.1302 17.588 37.1871 17.7906 37.247 17.9923C37.2793 18.1007 37.3092 18.3803 37.4254 18.4342C37.4737 18.4565 37.5206 18.4523 37.5608 18.4167C37.5656 18.4124 37.5703 18.4082 37.5749 18.404C37.6037 18.3787 37.615 18.3308 37.6038 18.2948C37.6021 18.29 37.6008 18.2852 37.5993 18.2804C37.5562 18.1431 37.3406 18.2018 37.3841 18.3401L37.3885 18.3545C37.398 18.3181 37.4076 18.2817 37.4172 18.2453C37.4124 18.2496 37.4076 18.2538 37.4028 18.258C37.448 18.2521 37.4932 18.2463 37.5382 18.2403C37.569 18.2546 37.5265 18.1441 37.5232 18.134C37.506 18.0782 37.4892 18.0222 37.4723 17.9662C37.4388 17.8543 37.4063 17.7421 37.3747 17.6294C37.3117 17.4044 37.2527 17.1781 37.1976 16.9509C37.0955 16.5289 37.0304 16.0963 36.916 15.6777C36.7504 15.0726 36.2325 14.3622 35.5153 14.6088C35.3801 14.6552 35.4381 14.8722 35.5746 14.8252Z" fill="#232828"/>
<path fill-rule="evenodd" clip-rule="evenodd" d="M8.46361 24.7963C8.37191 24.7082 8.23923 24.7093 8.14867 24.795C7.96105 24.9715 7.77745 25.1523 7.59404 25.3318C7.54024 25.3851 7.51899 25.4523 7.53603 25.5266C7.57412 25.7103 7.79295 25.7775 7.93559 25.6485C8.04988 25.5434 8.15863 25.4355 8.26872 25.3262C8.30279 25.2925 8.32385 25.2856 8.36195 25.3233C8.53005 25.4916 8.70236 25.6569 8.87581 25.8194C8.9141 25.856 8.90989 25.877 8.8716 25.9107C8.76017 26.0158 8.64856 26.1238 8.53847 26.2316C8.46649 26.3031 8.45232 26.3914 8.49042 26.4825C8.52852 26.5751 8.60625 26.6184 8.68685 26.6227C8.7686 26.6242 8.82508 26.6059 8.86739 26.5624C9.05386 26.3845 9.24015 26.2078 9.42222 26.0256C9.5099 25.9373 9.5099 25.8098 9.42088 25.7228C9.10326 25.4103 8.78564 25.1032 8.46361 24.7963Z" fill="white"/>
<path fill-rule="evenodd" clip-rule="evenodd" d="M10.0611 25.0795C10.0004 25.0206 9.94102 24.9576 9.87611 24.9014C9.83227 24.8637 9.82251 24.8369 9.86061 24.7824C9.99462 24.5874 10.0568 24.366 10.0597 24.1292C10.0597 24.0283 10.0455 23.9301 10.0243 23.8335C9.78575 22.9126 8.6152 22.5774 7.91085 23.2307C7.69336 23.4324 7.48295 23.6413 7.26967 23.8475C7.07075 24.0408 6.87011 24.233 6.67253 24.4263C6.60323 24.4937 6.58083 24.5749 6.61318 24.6673C6.64573 24.7599 6.71637 24.8075 6.81229 24.8202C6.89557 24.83 6.96488 24.795 7.0227 24.736C7.41384 24.3575 7.80632 23.9792 8.19592 23.6007C8.39216 23.4087 8.62382 23.3315 8.89626 23.3597C9.31707 23.4059 9.63603 23.8081 9.57821 24.2189C9.55141 24.4024 9.47234 24.5553 9.33813 24.6843C9.238 24.7824 9.2267 24.9128 9.31707 25.0052C9.45396 25.1481 9.59793 25.2871 9.74478 25.4201C9.83801 25.5042 9.98486 25.4915 10.071 25.4018C10.1585 25.3081 10.1556 25.1762 10.0611 25.0795Z" fill="white"/>
<path fill-rule="evenodd" clip-rule="evenodd" d="M17.4756 21.4453L24.6761 22.8827C24.6761 22.8827 25.0791 22.2897 25.3313 21.4828L27.4197 15.6268C27.4197 15.6268 28.2567 10.0714 23.9708 9.00359C23.6708 8.92889 23.3589 9.07714 23.2278 9.35862L17.4756 21.4453Z" fill="#31CEA3"/>
<path fill-rule="evenodd" clip-rule="evenodd" d="M18.2332 21.5586C18.2332 21.5586 16.8922 24.8139 18.2682 26.4502L28.3228 26.7207L31.2156 36.1759L34.1085 35.8122L31.2156 25.6298C31.2156 25.6298 30.854 23.8116 28.3228 23.0842C24.8875 22.1751 18.2332 21.5586 18.2332 21.5586Z" fill="#565A5B"/>
<path fill-rule="evenodd" clip-rule="evenodd" d="M30.6484 5.73457L29.8952 9.15159C29.8629 9.22167 29.8311 9.28732 29.8041 9.34855C29.57 9.83372 29.0563 10.1214 28.5233 10.0813C28.3533 10.0686 28.1898 10.0247 28.0382 9.94539L26.5756 9.20165L23.2624 7.52683C23.0244 7.39552 22.8858 7.14081 22.9051 6.87954L22.9853 5.79868C23.1044 4.19067 24.4526 2.60865 25.9745 2.30618C26.3492 2.23456 26.7244 2.21281 27.0914 2.24496C27.8521 2.311 28.5934 2.59768 29.2016 3.07804C30.0312 3.73341 30.5529 4.713 30.6484 5.73457Z" fill="#31CEA3"/>
<path fill-rule="evenodd" clip-rule="evenodd" d="M24.7309 6.74934C24.237 6.71237 23.8652 6.27822 23.9019 5.78149C23.9389 5.28476 24.3704 4.91087 24.8644 4.94783C25.3583 4.9848 25.7301 5.41896 25.6933 5.91568C25.6564 6.41241 25.2249 6.7863 24.7309 6.74934Z" fill="#565A5B"/>
<path fill-rule="evenodd" clip-rule="evenodd" d="M30.6486 5.73561L27.9985 5.19922L27.5214 5.55944L27.4004 7.19268L27.798 7.90176L29.8954 9.15282L30.0893 9.27142C30.1196 9.28721 30.1502 9.29857 30.186 9.30126C30.2264 9.30435 30.2674 9.29838 30.3049 9.27855C30.3754 9.2385 30.4211 9.16938 30.4267 9.09295L30.6624 5.91331C30.6578 5.85401 30.6576 5.79529 30.6486 5.73561Z" fill="#565A5B"/>
<path fill-rule="evenodd" clip-rule="evenodd" d="M27.9981 5.19521L27.7978 7.89737L26.862 7.33807C26.8103 7.30707 26.7634 7.27184 26.7216 7.22794C26.5922 7.09144 26.5208 6.90045 26.535 6.70676L26.6102 5.69348C26.6246 5.49979 26.723 5.32594 26.8712 5.21042L26.876 5.20618C27.0289 5.08624 27.2259 5.04215 27.4168 5.07911L27.9981 5.19521Z" fill="#565A5B"/>
<path fill-rule="evenodd" clip-rule="evenodd" d="M27.9981 5.19513L27.7978 7.89729L26.862 7.33799C26.8103 7.30699 26.7634 7.27176 26.7217 7.22786L26.8712 5.21034L26.876 5.2061C27.029 5.08616 27.226 5.04226 27.4168 5.07903L27.9981 5.19513Z" fill="#565A5B"/>
<path fill-rule="evenodd" clip-rule="evenodd" d="M21.4048 38.4656C21.4032 38.468 21.4017 38.4703 21.4002 38.4726C18.3375 38.462 15.2744 38.4708 12.2118 38.4708H6.88766C6.41534 38.4708 6.08087 38.0013 6.23882 37.5536C6.24131 37.5471 6.24304 37.5421 6.24418 37.5392C6.56908 36.739 6.9696 35.9685 7.4287 35.2383C9.79219 31.4793 14.5419 28.1738 19.1338 29.4577C21.5805 30.1422 23.3314 32.1493 22.9605 34.7939C22.7744 36.1224 22.1411 37.3467 21.4048 38.4656Z" fill="#FFC501"/>
<path fill-rule="evenodd" clip-rule="evenodd" d="M10.9707 34.0431H17.1707V33.5508H10.9707V34.0431Z" fill="#D6A10D"/>
<path fill-rule="evenodd" clip-rule="evenodd" d="M10.3174 35.3556H16.5174V34.8633H10.3174V35.3556Z" fill="#D6A10D"/>
<path fill-rule="evenodd" clip-rule="evenodd" d="M10.9707 36.504H17.1707V36.0117H10.9707V36.504Z" fill="#D6A10D"/>
<path fill-rule="evenodd" clip-rule="evenodd" d="M15.6384 30.4561C17.2648 30.3675 19.3486 30.3365 20.3361 31.9126C20.5038 32.1804 20.9281 31.9332 20.7592 31.6638C19.667 29.9205 17.4637 29.8639 15.6384 29.9632C15.3246 29.9802 15.3227 30.4732 15.6384 30.4561Z" fill="white"/>
<path fill-rule="evenodd" clip-rule="evenodd" d="M20.6801 32.8673C20.6887 32.9158 20.6968 32.9643 20.704 33.013C20.7058 33.0244 20.7075 33.0356 20.709 33.0469C20.7054 33.019 20.7054 33.0196 20.7092 33.0489C20.7119 33.0716 20.7148 33.0941 20.7172 33.1166C20.7276 33.2108 20.7351 33.3053 20.7398 33.4C20.7492 33.5931 20.7462 33.7864 20.732 33.9792C20.7226 34.1082 20.8516 34.2314 20.977 34.2258C21.118 34.2194 21.212 34.1174 21.2223 33.9792C21.2527 33.5631 21.2259 33.1469 21.1528 32.7362C21.1302 32.6091 20.9692 32.5258 20.8513 32.5641C20.7155 32.6083 20.6558 32.731 20.6801 32.8673Z" fill="white"/>
<path fill-rule="evenodd" clip-rule="evenodd" d="M25.7067 16.1191C26.4407 15.7152 27.1537 15.2741 27.8431 14.7972C27.9722 14.7076 27.8498 14.4941 27.7195 14.5842C27.03 15.0611 26.3171 15.5024 25.583 15.9063C25.4446 15.9824 25.5681 16.1953 25.7067 16.1191Z" fill="#249370"/>
<path fill-rule="evenodd" clip-rule="evenodd" d="M28.5968 25.9067C28.4179 26.1235 28.2774 26.3632 28.174 26.6248C28.1503 26.6849 28.1999 26.7629 28.2596 26.7765C28.3303 26.7927 28.385 26.7548 28.4103 26.6905C28.4162 26.6758 28.422 26.6614 28.4279 26.647C28.4189 26.6687 28.4371 26.6262 28.4386 26.6225C28.4513 26.5938 28.4647 26.5655 28.4783 26.5374C28.5058 26.4812 28.5355 26.4261 28.5673 26.3722C28.5991 26.3183 28.6328 26.2657 28.6686 26.2145C28.7107 26.1545 28.725 26.1354 28.77 26.0809C28.811 26.0314 28.8219 25.9546 28.77 25.9067C28.7248 25.8651 28.6406 25.8537 28.5968 25.9067Z" fill="#838B8C"/>
<path fill-rule="evenodd" clip-rule="evenodd" d="M28.33 26.7854C28.51 26.758 28.6857 26.6881 28.8368 26.5857C28.8898 26.5497 28.9182 26.4756 28.8806 26.4171C28.8468 26.3641 28.77 26.3345 28.7131 26.373C28.6785 26.3963 28.6429 26.4182 28.6059 26.4379C28.5864 26.4483 28.5665 26.4581 28.5462 26.4675C28.5385 26.471 28.5079 26.4898 28.5374 26.4717C28.5295 26.4766 28.5188 26.4794 28.5102 26.4827C28.4309 26.5133 28.3488 26.5351 28.2649 26.5478C28.2366 26.552 28.2054 26.5807 28.1916 26.6044C28.1763 26.6308 28.1698 26.6697 28.1792 26.6993C28.1889 26.7292 28.2071 26.7578 28.2354 26.7731C28.2665 26.7894 28.2956 26.7906 28.33 26.7854Z" fill="#838B8C"/>
<path fill-rule="evenodd" clip-rule="evenodd" d="M28.1915 26.6994C28.3763 27.3716 28.5608 28.0435 28.7456 28.7156C28.7875 28.8683 29.0242 28.8034 28.9819 28.6502C28.7973 27.978 28.6125 27.3059 28.4278 26.634C28.3859 26.4813 28.1494 26.546 28.1915 26.6994Z" fill="#838B8C"/>
<path fill-rule="evenodd" clip-rule="evenodd" d="M19.4585 23.498C20.2017 23.4142 20.8762 23.0207 21.3161 22.4123C21.409 22.2839 21.1965 22.1606 21.1046 22.2879C20.7205 22.8187 20.1075 23.1784 19.4585 23.2515C19.3922 23.259 19.3367 23.3027 19.3359 23.3747C19.3354 23.4356 19.3928 23.5053 19.4585 23.498Z" fill="#838B8C"/>
<path fill-rule="evenodd" clip-rule="evenodd" d="M24.3838 13.5938C24.3838 13.5938 24.7837 19.2696 26.0755 19.3949L27.2305 16.1566L25.2463 13.4492L24.3838 13.5938Z" fill="#269E79"/>
<path fill-rule="evenodd" clip-rule="evenodd" d="M25.2852 14.5366L26.7969 17.1406L33.0421 20.7586C33.4035 21.6679 34.3076 21.304 34.6692 21.8497C34.8373 21.9369 35.754 21.486 35.754 21.304L35.3923 20.5768L34.7556 20.3358L33.7652 20.2132L28.2653 15.8279L26.9301 13.082L25.2852 14.5366Z" fill="#FEC5B5"/>
<path fill-rule="evenodd" clip-rule="evenodd" d="M25.9162 10.0469L28.4278 14.679L25.6541 16.1557L23.8594 13.0382L25.9162 10.0469Z" fill="#31CEA3"/>
<path fill-rule="evenodd" clip-rule="evenodd" d="M23.9896 13.0432C24.477 14.0786 24.9647 15.1141 25.4521 16.1497C25.5195 16.2929 25.7309 16.168 25.6637 16.0253C25.1762 14.9897 24.6888 13.9543 24.2011 12.9188C24.1338 12.7756 23.9224 12.9005 23.9896 13.0432Z" fill="#249370"/>
</g>
</svg>
