<svg width="56" height="56" viewBox="0 0 56 56" fill="none" xmlns="http://www.w3.org/2000/svg">
<g clip-path="url(#clip0_6269_51415)">
<mask id="mask0_6269_51415" style="mask-type:alpha" maskUnits="userSpaceOnUse" x="4" y="10" width="44" height="10">
<path fill-rule="evenodd" clip-rule="evenodd" d="M4.59961 10.8906H47.868V19.1694H4.59961V10.8906Z" fill="white"/>
</mask>
<g mask="url(#mask0_6269_51415)">
<path fill-rule="evenodd" clip-rule="evenodd" d="M43.7517 19.1694H8.71585C6.44254 19.1694 4.59961 17.3163 4.59961 15.03C4.59961 12.7439 6.44254 10.8906 8.71585 10.8906H43.7517C46.025 10.8906 47.868 12.7439 47.868 15.03C47.868 17.3163 46.025 19.1694 43.7517 19.1694Z" fill="#FFC501"/>
</g>
<path fill-rule="evenodd" clip-rule="evenodd" d="M20.7242 14.5226C20.6959 14.4346 20.6183 14.3722 20.5264 14.3637L19.2795 14.25L18.7863 13.0894C18.75 13.0043 18.6672 12.9492 18.5752 12.9492C18.4833 12.9492 18.4006 13.0043 18.3642 13.0896L17.871 14.25L16.6239 14.3637C16.5322 14.3724 16.4548 14.4346 16.4263 14.5226C16.3979 14.6106 16.4242 14.707 16.4935 14.7679L17.436 15.5992L17.1582 16.8304C17.1379 16.9209 17.1728 17.0145 17.2474 17.0688C17.2876 17.0979 17.3345 17.1129 17.3818 17.1129C17.4228 17.1129 17.4632 17.1017 17.4996 17.0799L18.5752 16.4334L19.6505 17.0799C19.7292 17.1275 19.8284 17.1231 19.9029 17.0688C19.9777 17.0143 20.0126 16.9207 19.9923 16.8304L19.7143 15.5992L20.6568 14.768C20.7261 14.707 20.7526 14.6108 20.7242 14.5226Z" fill="white"/>
<path fill-rule="evenodd" clip-rule="evenodd" d="M13.066 14.5226C13.0377 14.4346 12.9601 14.3722 12.8682 14.3637L11.6213 14.25L11.1281 13.0894C11.0917 13.0043 11.009 12.9492 10.9169 12.9492C10.8251 12.9492 10.7423 13.0043 10.706 13.0896L10.2128 14.25L8.96566 14.3637C8.87395 14.3724 8.79661 14.4346 8.76808 14.5226C8.73975 14.6106 8.76598 14.707 8.83528 14.7679L9.7778 15.5992L9.50001 16.8304C9.47971 16.9209 9.51456 17.0145 9.58922 17.0688C9.62943 17.0979 9.67633 17.1129 9.72362 17.1129C9.76459 17.1129 9.80499 17.1017 9.84137 17.0799L10.9169 16.4334L11.9923 17.0799C12.071 17.1275 12.1702 17.1231 12.2447 17.0688C12.3195 17.0143 12.3544 16.9207 12.3341 16.8304L12.0561 15.5992L12.9986 14.768C13.0679 14.707 13.0943 14.6108 13.066 14.5226Z" fill="white"/>
<path fill-rule="evenodd" clip-rule="evenodd" d="M28.3824 14.5226C28.3541 14.4346 28.2765 14.3722 28.1846 14.3637L26.9377 14.25L26.4445 13.0894C26.4082 13.0043 26.3254 12.9492 26.2334 12.9492C26.1415 12.9492 26.0588 13.0043 26.0224 13.0896L25.5292 14.25L24.2821 14.3637C24.1904 14.3724 24.113 14.4346 24.0845 14.5226C24.0562 14.6106 24.0824 14.707 24.1517 14.7679L25.0942 15.5992L24.8164 16.8304C24.7961 16.9209 24.831 17.0145 24.9056 17.0688C24.9458 17.0979 24.9927 17.1129 25.04 17.1129C25.081 17.1129 25.1214 17.1017 25.1578 17.0799L26.2334 16.4334L27.3087 17.0799C27.3874 17.1275 27.4866 17.1231 27.5611 17.0688C27.6359 17.0143 27.6708 16.9207 27.6505 16.8304L27.3725 15.5992L28.315 14.768C28.3843 14.707 28.4108 14.6108 28.3824 14.5226Z" fill="white"/>
<path fill-rule="evenodd" clip-rule="evenodd" d="M36.0406 14.5226C36.0123 14.4346 35.9347 14.3722 35.8428 14.3637L34.5959 14.25L34.1027 13.0894C34.0663 13.0043 33.9836 12.9492 33.8915 12.9492C33.7996 12.9492 33.7169 13.0043 33.6806 13.0896L33.1874 14.25L31.9403 14.3637C31.8486 14.3724 31.7712 14.4346 31.7427 14.5226C31.7144 14.6106 31.7406 14.707 31.8099 14.7679L32.7524 15.5992L32.4746 16.8304C32.4543 16.9209 32.4892 17.0145 32.5638 17.0688C32.604 17.0979 32.6509 17.1129 32.6982 17.1129C32.7392 17.1129 32.7796 17.1017 32.816 17.0799L33.8915 16.4334L34.9669 17.0799C35.0456 17.1275 35.1448 17.1231 35.2193 17.0688C35.2941 17.0143 35.329 16.9207 35.3087 16.8304L35.0307 15.5992L35.9732 14.768C36.0425 14.707 36.0689 14.6108 36.0406 14.5226Z" fill="white"/>
<path fill-rule="evenodd" clip-rule="evenodd" d="M43.6988 14.5226C43.6705 14.4346 43.593 14.3722 43.5011 14.3637L42.2541 14.25L41.7609 13.0894C41.7246 13.0043 41.6419 12.9492 41.5498 12.9492C41.4579 12.9492 41.3752 13.0043 41.3388 13.0896L40.8456 14.25L39.5985 14.3637C39.5068 14.3724 39.4294 14.4346 39.4009 14.5226C39.3726 14.6106 39.3988 14.707 39.4681 14.7679L40.4106 15.5992L40.1328 16.8304C40.1125 16.9209 40.1474 17.0145 40.222 17.0688C40.2622 17.0979 40.3092 17.1129 40.3564 17.1129C40.3974 17.1129 40.4378 17.1017 40.4742 17.0799L41.5498 16.4334L42.6252 17.0799C42.7039 17.1275 42.803 17.1231 42.8775 17.0688C42.9524 17.0143 42.9872 16.9207 42.9669 16.8304L42.6889 15.5992L43.6314 14.768C43.7008 14.707 43.7272 14.6108 43.6988 14.5226Z" fill="white"/>
<path fill-rule="evenodd" clip-rule="evenodd" d="M34.9875 51.1453C35.2245 48.9682 34.5588 41.7706 35.5161 36.9574C36.4734 32.1441 40.9225 33.6251 40.9225 33.6251C45.326 32.4699 45.7119 43.7321 45.326 50.5677L34.9875 51.1453Z" fill="#565A5B"/>
<mask id="mask1_6269_51415" style="mask-type:alpha" maskUnits="userSpaceOnUse" x="-3" y="10" width="63" height="47">
<path fill-rule="evenodd" clip-rule="evenodd" d="M-2.33301 56.3868H59.7851V10.8906H-2.33301V56.3868Z" fill="white"/>
</mask>
<g mask="url(#mask1_6269_51415)">
<path fill-rule="evenodd" clip-rule="evenodd" d="M38.8164 46.8718H41.1138V43.4062H38.8164V46.8718Z" fill="#FEC5B5"/>
<path fill-rule="evenodd" clip-rule="evenodd" d="M38.8164 44.9835C39.5822 45.4482 40.348 45.4482 41.1138 44.9835V43.4062H38.8164V44.9835Z" fill="#EF998B"/>
<path fill-rule="evenodd" clip-rule="evenodd" d="M48.2307 56.249H30.9674C30.9406 55.5598 30.9425 54.522 31.0861 53.4554V53.4496C31.2297 52.3965 31.5112 51.3145 32.0472 50.5135C32.2348 50.2305 32.455 49.9822 32.7135 49.7819C32.7211 49.7742 32.7307 49.7685 32.7403 49.7608L34.1149 48.931L35.032 48.3784L36.1539 47.7007L38.817 46.095L39.1233 45.9102H40.7813C40.7813 45.9102 40.9038 45.9833 41.1144 46.1123C41.4992 46.3472 42.1808 46.7688 42.9543 47.2752C43.745 47.7931 44.6314 48.3976 45.3972 48.981V48.9829C45.4336 49.0099 45.47 49.0368 45.5044 49.0638C45.9582 49.4142 46.3641 49.7531 46.678 50.0611C46.7068 50.0881 46.7336 50.1169 46.7604 50.1439C46.8963 50.2806 47.0093 50.4115 47.0992 50.5309C47.957 51.6803 48.1733 54.7608 48.2307 56.249Z" fill="#FEC5B5"/>
<path fill-rule="evenodd" clip-rule="evenodd" d="M42.0254 40.7101C42.0254 41.1886 42.4112 41.5765 42.8869 41.5765C43.3627 41.5765 43.7485 41.1886 43.7485 40.7101C43.7485 40.2317 43.3627 39.8438 42.8869 39.8438C42.4112 39.8438 42.0254 40.2317 42.0254 40.7101Z" fill="#EF998B"/>
<path fill-rule="evenodd" clip-rule="evenodd" d="M36.2822 40.7101C36.2822 41.1886 36.668 41.5765 37.1438 41.5765C37.6195 41.5765 38.0053 41.1886 38.0053 40.7101C38.0053 40.2317 37.6195 39.8438 37.1438 39.8438C36.668 39.8438 36.2822 40.2317 36.2822 40.7101Z" fill="#EF998B"/>
<path fill-rule="evenodd" clip-rule="evenodd" d="M16.2751 35.3203L16.1977 37.1093L16.0836 39.7485L14.9349 41.2888L13.9776 40.3261L13.5947 35.3203H16.2751Z" fill="#FEC5B5"/>
<path fill-rule="evenodd" clip-rule="evenodd" d="M23.7426 43.2139V44.294V56.2482H5.9375V44.217C5.9375 43.4815 6.34529 42.8096 6.99432 42.4746L12.8604 39.4461L13.0213 39.3633L13.5956 39.7483L13.9536 40.0063L14.1125 40.1199L14.1547 40.1488L14.6869 40.5339H14.6888L14.8918 40.6802L14.9358 40.711L15.1426 40.5377L15.6671 40.0987L16.0845 39.7483L17.4247 39.3633L22.2742 42.3186L23.5665 43.1061L23.5684 43.108L23.7426 43.2139Z" fill="#31CEA3"/>
<path fill-rule="evenodd" clip-rule="evenodd" d="M23.5707 37.5695C23.5707 38.0479 23.185 38.4359 22.7092 38.4359C22.2334 38.4359 21.8477 38.0479 21.8477 37.5695C21.8477 37.0911 22.2334 36.7031 22.7092 36.7031C23.185 36.7031 23.5707 37.0911 23.5707 37.5695Z" fill="#EF998B"/>
<path fill-rule="evenodd" clip-rule="evenodd" d="M30.2719 37.3781C30.2719 37.8565 29.8861 38.2445 29.4104 38.2445C28.9346 38.2445 28.5488 37.8565 28.5488 37.3781C28.5488 36.8997 28.9346 36.5117 29.4104 36.5117C29.8861 36.5117 30.2719 36.8997 30.2719 37.3781Z" fill="#EF998B"/>
<path fill-rule="evenodd" clip-rule="evenodd" d="M24.3363 37.4743C24.3363 37.4743 20.5073 41.71 23.1876 43.8278C25.868 45.9457 26.8252 48.4485 26.8252 48.4485C26.8252 48.4485 32.7603 41.71 28.5483 38.822C24.4937 36.0421 24.3363 37.4743 24.3363 37.4743Z" fill="#929B9B"/>
<path fill-rule="evenodd" clip-rule="evenodd" d="M24.9111 43.4404H27.2086V39.5898H24.9111V43.4404Z" fill="#FEC5B5"/>
<path fill-rule="evenodd" clip-rule="evenodd" d="M27.2086 41.3226C26.4428 41.7866 25.6769 41.7866 24.9111 41.3226V39.5898H27.2086V41.3226Z" fill="#EF998B"/>
<path fill-rule="evenodd" clip-rule="evenodd" d="M22.6129 31.6964C22.6129 31.6964 19.3582 33.8143 22.9958 36.8947C26.6334 39.9752 24.3359 31.5039 24.3359 31.5039L22.6129 31.6964Z" fill="#929B9B"/>
<path fill-rule="evenodd" clip-rule="evenodd" d="M26.0594 40.9384C24.1562 40.9384 22.6133 39.3868 22.6133 37.4729V32.082H29.5056V37.4729C29.5056 39.3868 27.9627 40.9384 26.0594 40.9384Z" fill="#FEC5B5"/>
<path fill-rule="evenodd" clip-rule="evenodd" d="M24.5878 38.0525H22.9365C22.6524 38.0525 22.4219 37.8207 22.4219 37.535V36.2597C22.4219 35.974 22.6524 35.7422 22.9365 35.7422H24.5878C24.8719 35.7422 25.1024 35.974 25.1024 36.2597V37.535C25.1024 37.8207 24.8719 38.0525 24.5878 38.0525Z" fill="#FFE2DC"/>
<path fill-rule="evenodd" clip-rule="evenodd" d="M24.5878 38.0525H22.9365C22.6524 38.0525 22.4219 37.8207 22.4219 37.535V36.2597C22.4219 35.974 22.6524 35.7422 22.9365 35.7422H24.5878C24.8719 35.7422 25.1024 35.974 25.1024 36.2597V37.535C25.1024 37.8207 24.8719 38.0525 24.5878 38.0525Z" stroke="#565A5B"/>
<path fill-rule="evenodd" clip-rule="evenodd" d="M28.9911 38.0525H27.3398C27.0557 38.0525 26.8252 37.8207 26.8252 37.535V36.2597C26.8252 35.974 27.0557 35.7422 27.3398 35.7422H28.9911C29.2752 35.7422 29.5057 35.974 29.5057 36.2597V37.535C29.5057 37.8207 29.2752 38.0525 28.9911 38.0525Z" fill="#FFE2DC"/>
<path fill-rule="evenodd" clip-rule="evenodd" d="M28.9911 38.0525H27.3398C27.0557 38.0525 26.8252 37.8207 26.8252 37.535V36.2597C26.8252 35.974 27.0557 35.7422 27.3398 35.7422H28.9911C29.2752 35.7422 29.5057 35.974 29.5057 36.2597V37.535C29.5057 37.8207 29.2752 38.0525 28.9911 38.0525Z" stroke="#565A5B"/>
<path fill-rule="evenodd" clip-rule="evenodd" d="M28.3567 36.128C26.1966 35.5246 24.511 34.5288 23.3062 33.479C22.4418 32.7256 21.4554 31.534 22.0388 30.5446C22.3248 30.0594 23.4986 29.6301 24.1448 29.7745C25.8679 30.1595 29.314 30.3521 29.8884 32.2774C30.3835 33.9372 31.8029 37.0906 28.3567 36.128Z" fill="#929B9B"/>
<path fill-rule="evenodd" clip-rule="evenodd" d="M16.2253 36.898V34.9727L13.5449 35.3577L13.7523 37.3793L16.2253 36.898Z" fill="#EF998B"/>
<path fill-rule="evenodd" clip-rule="evenodd" d="M17.998 30.697C17.998 31.2288 18.4265 31.6597 18.9553 31.6597C19.4839 31.6597 19.9126 31.2288 19.9126 30.697C19.9126 30.1654 19.4839 29.7344 18.9553 29.7344C18.4265 29.7344 17.998 30.1654 17.998 30.697Z" fill="#EF998B"/>
<path fill-rule="evenodd" clip-rule="evenodd" d="M9.95703 30.697C9.95703 31.2288 10.3855 31.6597 10.9143 31.6597C11.4429 31.6597 11.8716 31.2288 11.8716 30.697C11.8716 30.1654 11.4429 29.7344 10.9143 29.7344C10.3855 29.7344 9.95703 30.1654 9.95703 30.697Z" fill="#EF998B"/>
<path fill-rule="evenodd" clip-rule="evenodd" d="M18.9559 29.2397C18.8601 29.0634 19.8174 27.1381 19.4345 26.1754C19.0516 25.2128 18.2858 24.4426 17.3285 24.6352C16.3713 24.8277 18.8601 27.7157 18.8601 27.7157L18.9559 29.2397Z" fill="#565A5B"/>
<path fill-rule="evenodd" clip-rule="evenodd" d="M11.9679 24.8263C11.9679 24.8263 9.28761 25.248 10.915 27.8288C12.5423 30.4097 12.3509 25.789 12.3509 25.789C12.3509 25.789 13.1167 24.6338 11.9679 24.8263Z" fill="#565A5B"/>
<path fill-rule="evenodd" clip-rule="evenodd" d="M40.0154 44.0779C41.7601 44.0779 43.1744 42.6556 43.1744 40.9011V36.7617H36.8564V40.9011C36.8564 42.6556 38.2707 44.0779 40.0154 44.0779Z" fill="#FEC5B5"/>
<path fill-rule="evenodd" clip-rule="evenodd" d="M40.5902 42.0586H39.0586C39.0586 42.0586 39.8244 43.5988 40.5902 42.0586Z" fill="white"/>
<path fill-rule="evenodd" clip-rule="evenodd" d="M25.2432 39.1094H26.7748C26.7748 39.1094 26.009 40.6496 25.2432 39.1094Z" fill="white"/>
<path fill-rule="evenodd" clip-rule="evenodd" d="M36.2822 39.2642C40.3027 39.6493 42.0258 35.9912 42.0258 35.9912C42.0716 35.9319 36.9023 35.5469 36.9023 35.5469L36.2822 39.2642Z" fill="#565A5B"/>
<path fill-rule="evenodd" clip-rule="evenodd" d="M48.2307 56.2473H30.9674C30.9406 55.558 30.9425 54.5203 31.0861 53.4537V53.4479C31.2297 52.3947 31.5112 51.3127 32.0472 50.5118C32.2348 50.2288 32.455 49.9804 32.7135 49.7802C32.7211 49.7725 32.7307 49.7667 32.7403 49.759L34.1149 48.9292L35.032 48.3766L36.1539 47.6989C39.399 50.7736 42.0659 48.3092 42.9543 47.2734C43.745 47.7913 44.6314 48.3959 45.3972 48.9793C45.4336 49.0062 45.4681 49.0332 45.5044 49.062C45.9582 49.4124 46.3641 49.7513 46.678 50.0593C46.7068 50.0863 46.7336 50.1152 46.7604 50.1421C46.8963 50.2788 47.0093 50.4098 47.0992 50.5291C47.957 51.6785 48.1733 54.759 48.2307 56.2473Z" fill="#31CEA3"/>
<path fill-rule="evenodd" clip-rule="evenodd" d="M12.232 25.1161C12.232 25.1161 10.915 25.8862 10.915 27.0414V32.2114C10.915 32.8412 11.0267 33.4678 11.2665 34.0479C11.583 34.8134 12.1599 35.6904 13.173 35.8978H16.1836C16.1836 35.8978 17.5923 36.0289 18.5081 34.2368C18.8487 33.5703 19.006 32.8213 19.006 32.0691V27.619C19.006 27.619 19.006 25.6937 17.6888 25.1161C16.3718 24.5385 12.232 25.1161 12.232 25.1161Z" fill="#FEC5B5"/>
<path fill-rule="evenodd" clip-rule="evenodd" d="M15.0352 56.2488V43.9203V40.5653C15.0352 40.3795 14.748 40.3791 14.748 40.5653V52.7692V56.2488C14.748 56.4346 15.0352 56.4349 15.0352 56.2488Z" fill="#249370"/>
<path fill-rule="evenodd" clip-rule="evenodd" d="M13.4033 43.5009C13.4033 43.7667 13.6176 43.9822 13.882 43.9822C14.1462 43.9822 14.3606 43.7667 14.3606 43.5009C14.3606 43.235 14.1462 43.0195 13.882 43.0195C13.6176 43.0195 13.4033 43.235 13.4033 43.5009Z" fill="#249370"/>
<path fill-rule="evenodd" clip-rule="evenodd" d="M13.4033 48.7001C13.4033 48.966 13.6176 49.1814 13.882 49.1814C14.1462 49.1814 14.3606 48.966 14.3606 48.7001C14.3606 48.4342 14.1462 48.2188 13.882 48.2188C13.6176 48.2188 13.4033 48.4342 13.4033 48.7001Z" fill="#249370"/>
<path fill-rule="evenodd" clip-rule="evenodd" d="M13.4033 53.8993C13.4033 54.1652 13.6176 54.3806 13.882 54.3806C14.1462 54.3806 14.3606 54.1652 14.3606 53.8993C14.3606 53.6334 14.1462 53.418 13.882 53.418C13.6176 53.418 13.4033 53.6334 13.4033 53.8993Z" fill="#249370"/>
<path fill-rule="evenodd" clip-rule="evenodd" d="M8.01765 56.2465V46.4871C8.01765 46.3014 7.73047 46.301 7.73047 46.4871V56.2465C7.73047 56.4323 8.01765 56.4327 8.01765 56.2465Z" fill="#249370"/>
<path fill-rule="evenodd" clip-rule="evenodd" d="M14.8398 35.8963H13.2125C12.1855 35.6897 11.5993 34.8185 11.2763 34.055C11.0301 33.4726 10.915 32.8428 10.915 32.21V30.6289C11.0412 31.4079 11.2623 32.7086 11.3937 33.1046C11.5851 33.6822 12.7338 33.6822 12.7338 33.6822L12.8579 33.2454C13.0111 32.7063 13.5012 32.3345 14.0587 32.3345H14.8398H15.127H15.9081C16.4656 32.3345 16.9556 32.7063 17.1089 33.2454L17.233 33.6822C17.233 33.6822 18.3817 33.6822 18.5732 33.1046C18.7045 32.7086 18.9256 31.4079 19.0518 30.6289V32.21C19.0518 32.8428 18.9367 33.4726 18.6903 34.055C18.3675 34.8185 17.7813 35.6897 16.7544 35.8963H15.127H14.8398Z" fill="#565A5B"/>
<path fill-rule="evenodd" clip-rule="evenodd" d="M13.6904 33.2383H16.1793C16.1793 33.2383 14.9848 35.3561 13.6904 33.2383Z" fill="white"/>
<path fill-rule="evenodd" clip-rule="evenodd" d="M12.0162 29.3167C12.002 29.3398 11.9878 29.3627 11.9737 29.3856C12.0977 29.4586 12.2216 29.5316 12.3457 29.6043C12.36 29.5705 12.3755 29.5375 12.3943 29.506C12.4035 29.4902 12.4134 29.475 12.4236 29.4598C12.445 29.4278 12.3926 29.4938 12.4362 29.4424C12.4598 29.4145 12.4848 29.3879 12.5118 29.3631C12.5226 29.3533 12.5337 29.3437 12.545 29.3342C12.5193 29.3554 12.5716 29.3159 12.5716 29.3157C12.599 29.2974 12.6275 29.2809 12.6568 29.2659C12.6662 29.2613 12.7018 29.2447 12.675 29.2561C12.6918 29.2487 12.7092 29.243 12.7265 29.2374C12.7611 29.226 12.7963 29.2174 12.8323 29.2108C12.8691 29.2041 12.7849 29.2114 12.8507 29.2087C12.8691 29.2079 12.8871 29.2066 12.9055 29.2066C12.9238 29.2066 12.9418 29.2077 12.9602 29.2085C12.9732 29.2089 12.9916 29.2118 12.9681 29.2083C13.0039 29.2135 13.0397 29.2224 13.0743 29.233C13.0918 29.2383 13.109 29.2443 13.1258 29.2509C13.14 29.2562 13.1396 29.2561 13.1249 29.2501C13.1316 29.2534 13.1381 29.2564 13.1448 29.2595C13.1769 29.2768 13.2089 29.294 13.2396 29.3142C13.2438 29.3169 13.2859 29.3477 13.271 29.3361C13.2581 29.3259 13.3002 29.3619 13.2997 29.3614C13.3267 29.386 13.3517 29.4128 13.3755 29.4405C13.3816 29.4478 13.395 29.4671 13.382 29.4488C13.3925 29.4636 13.4027 29.4788 13.4122 29.4944C13.4216 29.51 13.4308 29.5258 13.4392 29.5422C13.4425 29.5485 13.4664 29.6038 13.4532 29.5706C13.4961 29.6792 13.5974 29.7553 13.7182 29.7218C13.821 29.6935 13.9117 29.5649 13.8687 29.4555C13.7144 29.0649 13.3521 28.7851 12.9273 28.7738C12.5306 28.763 12.1293 29.0177 11.9737 29.3856C11.9283 29.4933 11.9417 29.6178 12.051 29.6821C12.1538 29.7426 12.2842 29.7041 12.3457 29.6043C12.3598 29.5814 12.374 29.5583 12.3882 29.5354C12.4494 29.4359 12.4094 29.2969 12.311 29.2389C12.208 29.1785 12.0776 29.217 12.0162 29.3167Z" fill="#565A5B"/>
<path fill-rule="evenodd" clip-rule="evenodd" d="M16.2291 29.3167C16.2149 29.3398 16.2007 29.3627 16.1866 29.3856C16.3106 29.4586 16.4345 29.5316 16.5586 29.6043C16.5729 29.5705 16.5884 29.5375 16.6072 29.506C16.6164 29.4902 16.6263 29.475 16.6365 29.4598C16.6579 29.4278 16.6055 29.4938 16.6491 29.4424C16.6727 29.4145 16.6977 29.3879 16.7247 29.3631C16.7355 29.3533 16.7466 29.3437 16.7579 29.3342C16.7322 29.3554 16.7845 29.3159 16.7845 29.3157C16.8118 29.2974 16.8404 29.2809 16.8697 29.2659C16.879 29.2613 16.9147 29.2447 16.8879 29.2561C16.9047 29.2487 16.9221 29.243 16.9394 29.2374C16.974 29.226 17.0092 29.2174 17.0452 29.2108C17.082 29.2041 16.9977 29.2114 17.0636 29.2087C17.082 29.2079 17.1 29.2066 17.1184 29.2066C17.1367 29.2066 17.1547 29.2077 17.1731 29.2085C17.1861 29.2089 17.2045 29.2118 17.181 29.2083C17.2168 29.2135 17.2526 29.2224 17.2872 29.233C17.3046 29.2383 17.3219 29.2443 17.3387 29.2509C17.3529 29.2562 17.3525 29.2561 17.3378 29.2501C17.3445 29.2534 17.351 29.2564 17.3577 29.2595C17.3898 29.2768 17.4218 29.294 17.4524 29.3142C17.4567 29.3169 17.4988 29.3477 17.4838 29.3361C17.471 29.3259 17.5131 29.3619 17.5126 29.3614C17.5396 29.386 17.5646 29.4128 17.5884 29.4405C17.5945 29.4478 17.6079 29.4671 17.5949 29.4488C17.6054 29.4636 17.6156 29.4788 17.6251 29.4944C17.6345 29.51 17.6437 29.5258 17.6521 29.5422C17.6554 29.5485 17.6793 29.6038 17.6661 29.5706C17.709 29.6792 17.8103 29.7553 17.9311 29.7218C18.0339 29.6935 18.1246 29.5649 18.0816 29.4555C17.9272 29.0649 17.565 28.7851 17.1402 28.7738C16.7435 28.763 16.3422 29.0177 16.1866 29.3856C16.1412 29.4933 16.1546 29.6178 16.2639 29.6821C16.3667 29.7426 16.4971 29.7041 16.5586 29.6043C16.5727 29.5814 16.5869 29.5583 16.6011 29.5354C16.6623 29.4359 16.6223 29.2969 16.5239 29.2389C16.4209 29.1785 16.2905 29.217 16.2291 29.3167Z" fill="#565A5B"/>
<path fill-rule="evenodd" clip-rule="evenodd" d="M24.3907 37.0071C24.4045 37.0295 24.4182 37.052 24.432 37.0743C24.4717 37.1388 24.557 37.1637 24.6233 37.1248C24.6951 37.0826 24.7031 37.0027 24.6735 36.9324C24.531 36.5955 24.1697 36.3616 23.8054 36.3714C23.4254 36.3816 23.0945 36.6332 22.9563 36.9834C22.9285 37.0541 22.9867 37.1379 23.0539 37.1563C23.1336 37.1785 23.1979 37.1292 23.2261 37.0583C23.3201 36.82 23.573 36.6515 23.8267 36.6523C24.0949 36.6531 24.3292 36.831 24.432 37.0743L24.6735 36.9324C24.6597 36.9101 24.6459 36.8876 24.6321 36.8652C24.5377 36.7116 24.2957 36.8527 24.3907 37.0071Z" fill="#565A5B"/>
<path fill-rule="evenodd" clip-rule="evenodd" d="M28.794 37.0071C28.8078 37.0295 28.8216 37.052 28.8354 37.0743C28.875 37.1388 28.9604 37.1637 29.0266 37.1248C29.0984 37.0826 29.1064 37.0027 29.0768 36.9324C28.9343 36.5955 28.5731 36.3616 28.2087 36.3714C27.8287 36.3816 27.4979 36.6332 27.3596 36.9834C27.3319 37.0541 27.3901 37.1379 27.4573 37.1563C27.5369 37.1785 27.6012 37.1292 27.6294 37.0583C27.7234 36.82 27.9763 36.6515 28.23 36.6523C28.4982 36.6531 28.7325 36.831 28.8354 37.0743L29.0768 36.9324C29.063 36.9101 29.0492 36.8876 29.0354 36.8652C28.941 36.7116 28.699 36.8527 28.794 37.0071Z" fill="#565A5B"/>
<path fill-rule="evenodd" clip-rule="evenodd" d="M40.819 40.1387C40.8052 40.1612 40.7914 40.1835 40.7776 40.206L41.0191 40.3477C41.1219 40.1044 41.3562 39.9265 41.6244 39.9257C41.8779 39.925 42.131 40.0934 42.225 40.3318C42.253 40.4022 42.3186 40.4515 42.3971 40.43C42.4638 40.4115 42.5227 40.3279 42.4946 40.2571C42.3563 39.9067 42.0257 39.655 41.6457 39.6448C41.2813 39.635 40.9201 39.8689 40.7776 40.206C40.7481 40.2757 40.7568 40.3566 40.8278 40.3984C40.8946 40.4375 40.9792 40.4126 41.0191 40.3477C41.0328 40.3254 41.0466 40.3031 41.0604 40.2806C41.1552 40.1263 40.9136 39.985 40.819 40.1387Z" fill="#565A5B"/>
<path fill-rule="evenodd" clip-rule="evenodd" d="M37.5641 40.1387C37.5503 40.1612 37.5365 40.1835 37.5228 40.206L37.7642 40.3477C37.867 40.1044 38.1013 39.9265 38.3695 39.9257C38.623 39.925 38.8761 40.0934 38.9701 40.3318C38.9981 40.4022 39.0638 40.4515 39.1422 40.43C39.2089 40.4115 39.2678 40.3279 39.2397 40.2571C39.1015 39.9067 38.7708 39.655 38.3908 39.6448C38.0265 39.635 37.6652 39.8689 37.5228 40.206C37.4933 40.2757 37.5019 40.3566 37.5729 40.3984C37.6397 40.4375 37.7243 40.4126 37.7642 40.3477C37.778 40.3254 37.7917 40.3031 37.8055 40.2806C37.9003 40.1263 37.6587 39.985 37.5641 40.1387Z" fill="#565A5B"/>
<path fill-rule="evenodd" clip-rule="evenodd" d="M18.094 24.4404C18.094 24.4404 16.7538 26.5583 14.6479 26.1732C12.5419 25.7881 11.9675 24.8255 11.9675 24.8255C11.9675 24.8255 11.5846 24.0554 12.7333 23.6703C13.882 23.2852 18.8598 23.4778 18.094 24.4404Z" fill="#565A5B"/>
<path d="M25.1025 36.5103H26.8256" stroke="#565A5B"/>
<path fill-rule="evenodd" clip-rule="evenodd" d="M24.6784 38.4037C24.6142 38.7495 24.2543 39.0178 23.904 38.9547C23.8576 38.9462 23.8099 38.9672 23.7967 39.0157C23.7851 39.0583 23.8109 39.1151 23.8574 39.1235C24.2955 39.2027 24.7636 38.8964 24.8463 38.4503C24.8549 38.4039 24.8336 38.3557 24.7856 38.3427C24.7431 38.3309 24.687 38.3569 24.6784 38.4037Z" fill="#EF8A7F"/>
<path fill-rule="evenodd" clip-rule="evenodd" d="M26.7779 38.3179C26.9825 38.831 27.6088 39.123 28.1274 38.917C28.2304 38.876 28.1856 38.7066 28.0811 38.7482C27.6586 38.9159 27.1179 38.7027 26.9458 38.2713C26.9282 38.227 26.888 38.1972 26.8388 38.2101C26.7972 38.2212 26.7604 38.274 26.7779 38.3179Z" fill="#EF8A7F"/>
<path fill-rule="evenodd" clip-rule="evenodd" d="M34.6264 56.2466H32.5146L32.1624 51.9282L32.147 51.7318L32.1451 51.7183C32.1356 51.7357 32.126 51.753 32.1164 51.7703C31.8484 52.2305 31.5708 52.5308 31.4655 52.6386L31.431 52.6733C31.4233 52.679 31.4195 52.6829 31.4195 52.6829V56.2466H19.2891V52.604C19.2891 52.604 19.3618 51.1215 19.5169 49.5235C19.5226 49.4676 19.5284 49.4118 19.5322 49.356C19.5418 49.2693 19.5494 49.1827 19.559 49.098C19.5801 48.8978 19.6011 48.6995 19.6241 48.5031C19.7524 47.4249 19.917 46.4295 20.1238 45.9443C20.141 45.9001 20.1659 45.8539 20.1946 45.8077C20.4225 45.4168 20.9356 44.947 21.552 44.4773C21.6037 44.4388 21.6554 44.4003 21.7071 44.3598C21.8641 44.2424 22.0249 44.1249 22.1896 44.0094C22.1915 44.0094 22.1915 44.0094 22.1934 44.0075C22.3159 43.9228 22.4385 43.8381 22.5629 43.7553C22.6433 43.6995 22.7256 43.6436 22.808 43.5897C22.8309 43.5743 22.8558 43.5589 22.8788 43.5435C23.0473 43.4338 23.2138 43.3259 23.3747 43.2258C23.4072 43.2046 23.4398 43.1835 23.4723 43.1642C23.5049 43.145 23.5355 43.1257 23.568 43.1065C23.6331 43.0641 23.6982 43.0256 23.7614 42.9852C23.8935 42.9043 24.0218 42.8273 24.1443 42.7541C24.2936 42.6656 24.4334 42.5828 24.5598 42.5096C24.6919 42.4326 24.8106 42.3652 24.9101 42.3094C25.1494 42.1727 25.293 42.0938 25.293 42.0938L27.2076 42.3999L27.7226 42.525C27.7226 42.5231 27.7245 42.525 27.7245 42.525L28.1265 42.6213L28.9823 42.8273L29.2006 42.8793L29.8553 43.0371L29.8764 43.0429L30.1023 43.0968C30.6882 43.2143 31.2128 43.4203 31.6703 43.7014C31.7354 43.7418 31.7986 43.7842 31.8618 43.8265C31.9077 43.8573 31.9518 43.8881 31.9958 43.9209C32.0322 43.9478 32.0685 43.9748 32.103 44.0017C32.1547 44.0402 32.2045 44.0826 32.2523 44.1249C32.2945 44.1596 32.3347 44.1962 32.3749 44.2347C32.4438 44.2963 32.5108 44.3618 32.5721 44.4291C32.6123 44.4696 32.6506 44.51 32.6869 44.5524C32.7808 44.6563 32.8688 44.7641 32.9511 44.8758C32.9971 44.9355 33.0392 44.9971 33.0813 45.0587C33.1158 45.1107 33.1503 45.1627 33.1828 45.2166C33.1847 45.2185 33.1866 45.2204 33.1866 45.2224C33.1981 45.2397 33.2096 45.257 33.2192 45.2724C33.2938 45.3937 33.3628 45.5169 33.424 45.6459C33.4585 45.7133 33.491 45.7826 33.5236 45.8519C33.5466 45.9039 33.5695 45.9578 33.5925 46.0098C33.6251 46.0907 33.6576 46.1715 33.6882 46.2543C33.717 46.3371 33.7457 46.4199 33.7725 46.5046C33.8376 46.7029 33.8912 46.907 33.9352 47.1149C33.9563 47.2093 33.9735 47.3055 33.9888 47.4018C34.0041 47.4961 34.0195 47.5924 34.0329 47.6906C34.0405 47.7541 34.0482 47.8196 34.0558 47.8851C34.0865 48.1546 34.0999 48.428 34.0999 48.7072L34.1152 48.9286L34.4043 53.0699L34.6264 56.2466Z" fill="#FEC5B5"/>
<path fill-rule="evenodd" clip-rule="evenodd" d="M32.3808 47.8727C32.377 47.865 32.3751 47.8592 32.3713 47.8515L32.3694 47.4665L32.3808 47.8727ZM34.1154 48.9297L34.1001 48.7083L34.0982 48.6833C34.0963 48.4137 34.0829 48.148 34.0561 47.8862C34.0484 47.8207 34.0407 47.7553 34.0331 47.6917C34.0197 47.5935 34.0044 47.4973 33.9891 47.4029C33.9718 47.3086 33.9546 47.2123 33.9335 47.1199C33.8895 46.9101 33.8359 46.706 33.7727 46.5057C33.7459 46.421 33.7172 46.3382 33.6885 46.2555C33.6578 46.1727 33.6253 46.0918 33.5927 46.0109C33.5698 45.959 33.5468 45.9051 33.5238 45.8531C33.4913 45.7838 33.4587 45.7145 33.4243 45.6471C33.3611 45.5181 33.2922 45.3949 33.2194 45.2736C33.2098 45.2582 33.1984 45.2408 33.1869 45.2235C33.1869 45.2216 33.185 45.2196 33.183 45.2177C33.1505 45.1638 33.116 45.1118 33.0816 45.0598C33.0395 44.9982 32.9973 44.9366 32.9514 44.8769C32.8691 44.7653 32.781 44.6575 32.6872 44.5535C32.6508 44.5111 32.6125 44.4707 32.5723 44.4303C32.511 44.3629 32.444 44.2974 32.3751 44.2358C32.3349 44.1973 32.2947 44.1607 32.2526 44.1261C32.2047 44.0837 32.1549 44.0414 32.1032 44.0029C32.0688 43.9759 32.0324 43.949 31.996 43.922C31.952 43.8873 31.908 43.8565 31.862 43.8257C31.7988 43.7834 31.7357 43.741 31.6706 43.7025C31.6131 43.6659 31.5538 43.6313 31.4944 43.5985C31.0732 43.3617 30.6003 43.1885 30.0777 43.0864L29.8786 43.0402L29.8575 43.0344C29.8575 43.0364 29.8575 43.0364 29.8556 43.0383C29.6756 43.7256 29.0649 44.5708 27.2078 44.7903H27.204C23.9531 45.1734 23.7616 42.9863 23.7616 42.9863V42.9844C23.6985 43.0229 23.6334 43.0633 23.5664 43.1057C23.5357 43.1249 23.5051 43.1442 23.4725 43.1654C23.44 43.1846 23.4074 43.2058 23.3749 43.227C23.2141 43.3271 23.0475 43.4349 22.879 43.5446C22.8561 43.56 22.8312 43.5754 22.8082 43.5908C22.7259 43.6448 22.6436 43.7006 22.5631 43.7564C22.4387 43.8392 22.3162 43.9239 22.1936 44.0086C22.1917 44.0106 22.1917 44.0106 22.1898 44.0106C22.0252 44.1261 21.8643 44.2435 21.7073 44.361C21.6557 44.4014 21.604 44.4399 21.5523 44.4784C21.4948 44.5227 21.4374 44.567 21.3819 44.6113C21.3264 44.6555 21.2727 44.6979 21.2172 44.7422C20.7941 45.0945 20.4457 45.4353 20.2408 45.7356C20.2255 45.7607 20.2102 45.7838 20.1949 45.8088C20.1661 45.855 20.1413 45.9012 20.124 45.9455C20.1183 45.9532 20.1145 45.9628 20.1106 45.9705C19.9077 46.4518 19.7469 47.4357 19.6243 48.5042C19.6014 48.7006 19.5803 48.8989 19.5592 49.0991C19.5497 49.1838 19.542 49.2705 19.5324 49.3571C19.5286 49.413 19.5229 49.4688 19.5171 49.5246C19.3697 51.1342 19.3008 52.634 19.3008 52.634L19.3027 53.2616L21.2727 53.2924L23.7425 53.3329L28.8677 53.4137L29.9494 53.4311L31.0866 53.4484L31.4198 53.4542H31.4351L31.4312 52.6744V52.6667C31.4427 52.659 31.4542 52.6494 31.4657 52.6398C31.7089 52.4549 31.9482 52.2123 32.132 51.9717C32.1434 51.9563 32.153 51.9428 32.1626 51.9293C32.1664 51.9274 32.1664 51.9255 32.1683 51.9235L32.3138 53.2616L34.4045 53.071L34.4198 53.0691L34.1154 48.9297Z" fill="#F76B6D"/>
<path fill-rule="evenodd" clip-rule="evenodd" d="M21.2971 50.9989C20.8719 50.1306 21.1864 49.1468 21.574 48.3293C21.6532 48.1624 21.4057 48.0157 21.326 48.1836C20.8893 49.1046 20.5728 50.1722 21.0492 51.1447C21.1307 51.3114 21.3787 51.1653 21.2971 50.9989Z" fill="#DB4F5D"/>
<path fill-rule="evenodd" clip-rule="evenodd" d="M20.8005 48.3672C20.9003 48.4758 21 48.5845 21.1 48.6933C21.1511 48.749 21.252 48.7491 21.3031 48.6933C21.3573 48.6338 21.3575 48.5485 21.3031 48.4892C21.2034 48.3805 21.1034 48.2717 21.0037 48.1629C20.9526 48.1073 20.8517 48.1071 20.8005 48.1629C20.7462 48.2226 20.7462 48.3077 20.8005 48.3672Z" fill="#DB4F5D"/>
<path fill-rule="evenodd" clip-rule="evenodd" d="M40.54 36.3198C40.54 36.3198 41.6888 38.4376 43.7947 39.0152C45.9007 39.5928 43.2204 35.7422 43.2204 35.7422L40.54 36.3198Z" fill="#565A5B"/>
<path fill-rule="evenodd" clip-rule="evenodd" d="M45.4131 56.247V52.6043C45.4131 52.4185 45.126 52.4182 45.126 52.6043V56.247C45.126 56.4328 45.4131 56.4332 45.4131 56.247Z" fill="#249370"/>
<path fill-rule="evenodd" clip-rule="evenodd" d="M31.4191 53.4531V56.2467H27.4521C27.747 55.5633 28.1165 54.6969 28.3635 54.1097C28.3635 54.1077 28.3654 54.1077 28.3654 54.1058C28.53 53.7169 28.6411 53.4531 28.6411 53.4531H31.4191Z" fill="#D6A10D"/>
<path fill-rule="evenodd" clip-rule="evenodd" d="M17.4243 39.3631L16.0841 37.9336L15.5098 39.9407L16.467 40.9034L17.4243 39.3631Z" fill="#249370"/>
<path fill-rule="evenodd" clip-rule="evenodd" d="M13.7866 38.0195L14.3607 39.9408L13.4035 40.9034L12.8291 39.3632L13.7866 38.0195Z" fill="#249370"/>
<path fill-rule="evenodd" clip-rule="evenodd" d="M23.5702 32.8544C23.5702 32.8544 22.9959 34.7797 22.23 34.9722C21.4642 35.1648 22.613 31.6992 22.613 31.6992L23.7617 32.0843L23.5702 32.8544Z" fill="#929B9B"/>
<path fill-rule="evenodd" clip-rule="evenodd" d="M34.6742 45.9449L33.9352 47.1155L33.9333 47.1193L32.6888 49.0889L32.0187 50.1517L29.9491 53.4305L29.9338 53.4536L28.1705 56.2472H21.2725V51.3357L23.7422 48.6095L25.6893 46.4609L27.2037 44.7897L28.9823 42.8278L29.122 42.6719C29.122 42.6719 29.4418 42.7104 29.93 42.8143C31.3276 43.1128 34.1056 43.9464 34.6742 45.9449Z" fill="#FFC501"/>
<path fill-rule="evenodd" clip-rule="evenodd" d="M32.0133 43.405C30.2326 45.6335 28.5581 47.9462 26.9976 50.3361C26.8959 50.4918 27.1444 50.6368 27.2455 50.4818C28.7925 48.1127 30.451 45.8185 32.2164 43.6092C32.3311 43.4656 32.1291 43.26 32.0133 43.405Z" fill="#D6A10D"/>
<path fill-rule="evenodd" clip-rule="evenodd" d="M25.7513 49.4053C27.0725 47.8127 28.3938 46.2203 29.7152 44.6276C29.8327 44.4859 29.6305 44.2805 29.512 44.4234C28.1908 46.016 26.8696 47.6084 25.5482 49.201C25.4306 49.3427 25.6328 49.5481 25.7513 49.4053Z" fill="#D6A10D"/>
<path fill-rule="evenodd" clip-rule="evenodd" d="M32.2119 46.6637C32.613 46.0965 33.0566 45.5613 33.5374 45.0605C33.6658 44.9267 33.4629 44.7222 33.3342 44.8562C32.8366 45.3747 32.3793 45.9307 31.964 46.5179C31.919 46.5815 31.9527 46.6787 32.0155 46.7155C32.0875 46.7578 32.1669 46.7274 32.2119 46.6637Z" fill="#D6A10D"/>
<path fill-rule="evenodd" clip-rule="evenodd" d="M30.3532 51.2027C29.2032 52.685 28.0989 54.2021 27.0428 55.7535C26.9381 55.9073 27.1868 56.0519 27.2907 55.8992C28.3328 54.3682 29.4214 52.8696 30.5564 51.4069C30.6685 51.262 30.4668 51.0562 30.3532 51.2027Z" fill="#D6A10D"/>
<path fill-rule="evenodd" clip-rule="evenodd" d="M31.9307 50.6981C31.9368 51.4493 31.9944 52.1981 32.0984 52.942C32.1093 53.0198 32.2071 53.0608 32.2751 53.0429C32.358 53.0208 32.3861 52.942 32.3754 52.8652C32.2749 52.1473 32.2238 51.423 32.2178 50.6981C32.2163 50.5123 31.9291 50.5119 31.9307 50.6981Z" fill="#DB4F5D"/>
<path fill-rule="evenodd" clip-rule="evenodd" d="M24.7173 42.8002C24.7002 42.9587 24.5588 43.0734 24.401 43.0565C24.2432 43.0394 24.1293 42.8969 24.1462 42.7384C24.1632 42.5798 24.3047 42.465 24.4625 42.4822C24.6202 42.4993 24.7341 42.6416 24.7173 42.8002Z" fill="white"/>
<path fill-rule="evenodd" clip-rule="evenodd" d="M25.2925 43.183C25.2754 43.3415 25.134 43.4562 24.9762 43.4393C24.8184 43.4222 24.7045 43.2797 24.7214 43.1212C24.7384 42.9626 24.8799 42.8478 25.0377 42.865C25.1954 42.8821 25.3093 43.0244 25.2925 43.183Z" fill="white"/>
<path fill-rule="evenodd" clip-rule="evenodd" d="M25.8667 43.3784C25.8497 43.5368 25.7082 43.6516 25.5504 43.6346C25.3927 43.6175 25.2787 43.475 25.2956 43.3165C25.3126 43.1579 25.4541 43.0432 25.6119 43.0603C25.7696 43.0774 25.8835 43.2197 25.8667 43.3784Z" fill="white"/>
<path fill-rule="evenodd" clip-rule="evenodd" d="M26.4409 43.5698C26.4239 43.7282 26.2824 43.843 26.1246 43.826C25.9669 43.8089 25.853 43.6664 25.8698 43.508C25.8869 43.3493 26.0283 43.2346 26.1861 43.2517C26.3439 43.2688 26.4578 43.4111 26.4409 43.5698Z" fill="white"/>
<path fill-rule="evenodd" clip-rule="evenodd" d="M27.0151 43.3784C26.9981 43.5368 26.8566 43.6516 26.6989 43.6346C26.5411 43.6175 26.4272 43.475 26.444 43.3165C26.4611 43.1579 26.6026 43.0432 26.7603 43.0603C26.9181 43.0774 27.032 43.2197 27.0151 43.3784Z" fill="white"/>
<path fill-rule="evenodd" clip-rule="evenodd" d="M27.5894 43.183C27.5723 43.3415 27.4308 43.4562 27.2731 43.4393C27.1153 43.4222 27.0014 43.2797 27.0183 43.1212C27.0353 42.9626 27.1768 42.8478 27.3345 42.865C27.4923 42.8821 27.6062 43.0244 27.5894 43.183Z" fill="white"/>
<path fill-rule="evenodd" clip-rule="evenodd" d="M28.1636 42.8002C28.1465 42.9587 28.0051 43.0734 27.8473 43.0565C27.6895 43.0394 27.5756 42.8969 27.5925 42.7384C27.6095 42.5798 27.751 42.465 27.9088 42.4822C28.0665 42.4993 28.1804 42.6416 28.1636 42.8002Z" fill="white"/>
<path fill-rule="evenodd" clip-rule="evenodd" d="M7.1842 46.9688C7.23685 47.03 7.28816 47.0926 7.33755 47.1563C7.35249 47.1758 7.32721 47.1425 7.34196 47.1621C7.34789 47.1698 7.35383 47.1777 7.35976 47.1854C7.37144 47.2012 7.38312 47.217 7.39461 47.2328C7.41911 47.2663 7.44323 47.3004 7.46678 47.3346C7.55849 47.4677 7.64292 47.6057 7.72046 47.7476C7.75664 47.8138 7.85294 47.8408 7.91689 47.7994C7.98371 47.7561 8.00706 47.6727 7.96839 47.6019C7.80508 47.3027 7.60922 47.0227 7.38733 46.7645C7.33794 46.7074 7.23398 46.7101 7.1842 46.7645C7.12849 46.8258 7.13155 46.9078 7.1842 46.9688Z" fill="#249370"/>
<path fill-rule="evenodd" clip-rule="evenodd" d="M23.4115 38.8679C23.5616 39.0272 23.7645 39.1225 23.9805 39.1456C24.0259 39.1504 24.0695 39.1019 24.0676 39.058C24.0653 39.0064 24.0291 38.9756 23.9805 38.9704C23.9751 38.9698 23.9698 38.9692 23.9642 38.9686C23.9734 38.9696 23.9707 38.9696 23.9633 38.9682C23.9512 38.9663 23.9391 38.9642 23.9271 38.9619C23.9047 38.9573 23.8821 38.9519 23.8601 38.9451C23.8379 38.9388 23.816 38.9313 23.7944 38.9228C23.7931 38.9224 23.7779 38.9163 23.7862 38.9197C23.7942 38.923 23.7791 38.9166 23.7777 38.9161C23.7666 38.9111 23.7555 38.9057 23.7446 38.9003C23.7046 38.8801 23.6661 38.8566 23.6299 38.8302C23.6244 38.8262 23.6188 38.8223 23.6137 38.8181C23.6207 38.8237 23.6165 38.8204 23.6119 38.8165C23.6037 38.8096 23.5953 38.8027 23.5872 38.7954C23.5689 38.7792 23.5514 38.7619 23.5348 38.7439C23.5032 38.7108 23.4427 38.7099 23.4115 38.7439C23.3789 38.7798 23.378 38.8323 23.4115 38.8679Z" fill="#EF8A7F"/>
<path fill-rule="evenodd" clip-rule="evenodd" d="M22.6588 31.7498C23.1359 32.6876 23.8221 33.5039 24.6608 34.1351C25.0895 34.4573 25.5565 34.7294 26.0502 34.9377C26.5469 35.1472 27.0902 35.2758 27.6154 35.0981C27.721 35.0623 27.6757 34.8928 27.569 34.929C27.0123 35.1177 26.4391 34.9315 25.9275 34.693C25.481 34.4847 25.0579 34.2253 24.6691 33.9225C23.891 33.3162 23.2571 32.5421 22.8093 31.6614C22.7582 31.5609 22.6079 31.6495 22.6588 31.7498Z" fill="white"/>
<path fill-rule="evenodd" clip-rule="evenodd" d="M22.9277 31.0709C23.3501 32.2217 24.1993 33.189 25.2878 33.7448C25.3875 33.7958 25.4758 33.6447 25.3756 33.5936C24.3288 33.059 23.5026 32.1331 23.0956 31.0243C23.0571 30.9194 22.8887 30.9648 22.9277 31.0709Z" fill="white"/>
<path fill-rule="evenodd" clip-rule="evenodd" d="M15.459 39.9749L15.1406 40.5358L15.7395 40.0334L15.6505 39.5898L15.459 39.9749Z" fill="#249370"/>
<path fill-rule="evenodd" clip-rule="evenodd" d="M14.3106 39.7852L14.9807 40.6515L14.0234 40.2665L14.3106 39.7852Z" fill="#249370"/>
</g>
</g>
<defs>
<clipPath id="clip0_6269_51415">
<rect width="56" height="56" fill="white"/>
</clipPath>
</defs>
</svg>
