<svg width="53" height="46" viewBox="0 0 53 46" fill="none" xmlns="http://www.w3.org/2000/svg">
<path fill-rule="evenodd" clip-rule="evenodd" d="M3.29983 41.7558C3.29983 43.1526 4.42596 44.2851 5.81495 44.2851C7.20414 44.2851 8.33008 43.1526 8.33008 41.7558C8.33008 40.359 7.20414 39.2266 5.81495 39.2266C4.42596 39.2266 3.29983 40.359 3.29983 41.7558Z" fill="#31CEA3"/>
<path fill-rule="evenodd" clip-rule="evenodd" d="M1.38282 45.0711C1.38282 45.2867 1.40388 45.4965 1.446 45.7006H7.66631C7.70843 45.4965 7.72949 45.2867 7.72949 45.0711C7.72949 44.582 7.62036 44.1161 7.42527 43.7022C7.28341 43.4037 7.09789 43.1304 6.87389 42.8916C6.46801 42.4526 5.93558 42.1292 5.33824 41.9771C5.08763 41.9136 4.82515 41.8789 4.5552 41.8789C4.12079 41.8789 3.70534 41.9675 3.32607 42.1273C2.66556 42.4064 2.118 42.9051 1.77549 43.5308C1.52641 43.9871 1.38282 44.5127 1.38282 45.0711Z" fill="#31CEA3"/>
<path fill-rule="evenodd" clip-rule="evenodd" d="M5.33771 31.6374V45.6979H14.7649L15.0386 45.6962L16.9551 45.6921V30.6748L14.8146 28.5223L13.1222 26.8203L9.47118 27.5558L5.33771 31.6374Z" fill="#FDE98E"/>
<path fill-rule="evenodd" clip-rule="evenodd" d="M14.7651 32.0273V45.697L15.0389 45.6951L16.9551 45.6912L19.2374 45.6874C19.1723 44.8999 19.2432 32.3142 19.2432 32.3142L16.9551 32.1679L15.0389 32.0447L14.7651 32.0273Z" fill="#FFC501"/>
<path fill-rule="evenodd" clip-rule="evenodd" d="M15.0396 30.3125V45.6956L16.956 45.6918L19.2383 45.6879H19.4717V30.3125H15.0396Z" fill="#FFC501"/>
<path fill-rule="evenodd" clip-rule="evenodd" d="M14.7655 32.415L19.916 32.4747C19.916 31.4866 16.087 30.6765 16.087 30.6765L12.2096 26.7773H10.2484L5.3156 31.7379V32.5798L10.249 27.811L14.7655 32.415Z" fill="#D6A10D"/>
<path fill-rule="evenodd" clip-rule="evenodd" d="M10.2481 26.8203L14.919 31.6378H17.9131V26.8203H10.2481Z" fill="#A05A2B"/>
<path fill-rule="evenodd" clip-rule="evenodd" d="M11.2061 45.6971H9.28959V40.5508H11.2061V45.6971Z" fill="#FFC501"/>
<path fill-rule="evenodd" clip-rule="evenodd" d="M16.9557 24.7754V25.9787V45.6937L19.238 45.6899H19.4716L20.3082 45.688L22.705 45.6822L31.3876 45.6649H31.5195V23.6914L31.3876 23.701L20.1225 24.5405L18.1006 24.6906L16.9557 24.7754Z" fill="#1EAA80"/>
<path fill-rule="evenodd" clip-rule="evenodd" d="M16.9555 25.9766V45.6916L19.2378 45.6878H19.4714L20.308 45.6859L22.7048 45.6801L31.3874 45.6628H31.4697V25.9766H16.9555Z" fill="#59EAB9"/>
<path fill-rule="evenodd" clip-rule="evenodd" d="M31.71 38.5032H16.9551V36.9375H31.71V38.5032Z" fill="#1EAA80"/>
<path fill-rule="evenodd" clip-rule="evenodd" d="M49.4121 42.178C49.4121 43.7412 50.6723 45.0084 52.2267 45.0084C53.7811 45.0084 55.041 43.7412 55.041 42.178C55.041 40.6149 53.7811 39.3477 52.2267 39.3477C50.6723 39.3477 49.4121 40.6149 49.4121 42.178Z" fill="#33B895"/>
<path fill-rule="evenodd" clip-rule="evenodd" d="M49.4123 44.295C49.4123 44.7783 49.5329 45.2307 49.7454 45.6273L52.286 45.6216L53.1782 45.6196L54.7136 45.6177C54.9223 45.223 55.041 44.7744 55.041 44.295C55.041 43.9196 54.9685 43.5634 54.8362 43.2361C54.75 43.0205 54.637 42.8183 54.503 42.6335C54.0033 41.9404 53.1992 41.4841 52.286 41.4668C52.2669 41.4648 52.2458 41.4648 52.2267 41.4648C51.0454 41.4648 50.0326 42.1965 49.6172 43.2361C49.485 43.5634 49.4123 43.9196 49.4123 44.295Z" fill="#33B895"/>
<path fill-rule="evenodd" clip-rule="evenodd" d="M11.2061 36.4583H9.28981V34.5312H11.2061V36.4583Z" fill="#A18DFC"/>
<path fill-rule="evenodd" clip-rule="evenodd" d="M31.3879 21.9435V45.6632H31.5198L33.1241 45.6613L35.8257 45.6555H35.8275C37.9028 44.6351 42.5859 42.1765 42.5859 42.1765V24.7737L37.1965 19.1133L31.3879 21.9435Z" fill="#31CEA3"/>
<path fill-rule="evenodd" clip-rule="evenodd" d="M42.5854 35.1311V45.6414L49.7456 45.626L52.2861 45.6202V36.5751L47.496 31.6367L42.5854 35.1311Z" fill="#FFC501"/>
<path fill-rule="evenodd" clip-rule="evenodd" d="M33.1241 36.3361V45.6623L35.8255 45.6565H35.8275L42.5859 45.643V35.1328L33.1241 36.3361Z" fill="#FDE98E"/>
<path fill-rule="evenodd" clip-rule="evenodd" d="M42.5852 35.1328V37.376L42.7041 37.3007H33.1236V36.3373L42.5852 35.1328Z" fill="#D6A10D"/>
<path fill-rule="evenodd" clip-rule="evenodd" d="M38.9922 42.2382H36.8363V40.0703H38.9922V42.2382Z" fill="#FFC501"/>
<path fill-rule="evenodd" clip-rule="evenodd" d="M48.6934 42.2382H46.5374V40.0703H48.6934V42.2382Z" fill="#D6A10D"/>
<path fill-rule="evenodd" clip-rule="evenodd" d="M27.375 30.677H25.4587V28.75H27.375V30.677Z" fill="#31CEA3"/>
<path fill-rule="evenodd" clip-rule="evenodd" d="M27.0859 41.888H25.1697V39.9609H27.0859V41.888Z" fill="#31CEA3"/>
<path fill-rule="evenodd" clip-rule="evenodd" d="M22.7041 30.677H20.7877V28.75H22.7041V30.677Z" fill="#31CEA3"/>
<path fill-rule="evenodd" clip-rule="evenodd" d="M37.9141 30.677H35.9978V28.75H37.9141V30.677Z" fill="#208966"/>
<path fill-rule="evenodd" clip-rule="evenodd" d="M31.5186 33.5898V37.3754H28.6441V36.3367L31.5186 33.5898Z" fill="#31CEA3"/>
<path fill-rule="evenodd" clip-rule="evenodd" d="M20.3081 40.0703V45.6883L22.7051 45.6826V40.0703H20.3081Z" fill="#31CEA3"/>
<path fill-rule="evenodd" clip-rule="evenodd" d="M33.1241 36.3378H42.5857L47.4961 31.6406H37.9146L33.1241 36.3378Z" fill="#A05A2B"/>
<path fill-rule="evenodd" clip-rule="evenodd" d="M31.3279 24.7739L37.1963 19.1133H22.4651L16.9559 24.7739H31.3279Z" fill="#208966"/>
<path fill-rule="evenodd" clip-rule="evenodd" d="M17.1466 33.6406C17.1466 33.7377 31.5186 33.6406 31.5186 33.6406L28.7157 36.4593H14.1522L17.1466 33.6406Z" fill="#208966"/>
<path fill-rule="evenodd" clip-rule="evenodd" d="M28.6445 37.4205H14.1527V36.457H28.6445V37.4205Z" fill="#59EAB9"/>
<path fill-rule="evenodd" clip-rule="evenodd" d="M19.4469 24.9497C23.9863 24.9497 27.6796 21.2358 27.6796 16.6709C27.6796 12.1059 23.9863 8.39207 19.4469 8.39207C14.9075 8.39207 11.2147 12.1059 11.2147 16.6709C11.2147 21.2358 14.9075 24.9497 19.4469 24.9497ZM19.447 0.113281C28.526 0.113281 35.9121 7.52653 35.9121 16.6386C35.9121 27.9469 21.1775 44.5481 20.5502 45.2494C20.2555 45.5786 19.8511 45.7431 19.4467 45.7429C19.0422 45.7427 16.8451 45.7429 16.405 45.7429C16.0589 45.7429 17.7761 44.6112 17.0636 43.762C13.3528 39.3382 2.98218 26.1257 2.98218 16.6386C2.98238 7.52653 10.3683 0.113281 19.447 0.113281Z" fill="#F76B6D"/>
<path fill-rule="evenodd" clip-rule="evenodd" d="M16.5759 24.9497C21.1154 24.9497 24.8085 21.2358 24.8085 16.6709C24.8085 12.1059 21.1154 8.39207 16.5759 8.39207C12.0365 8.39207 8.34356 12.1059 8.34356 16.6709C8.34356 21.2358 12.0365 24.9497 16.5759 24.9497ZM16.576 0.113281C25.6549 0.113281 33.041 7.52653 33.041 16.6386C33.041 27.9469 18.3064 44.5481 17.6791 45.2494C17.0897 45.908 16.0612 45.9068 15.4728 45.2494C14.8455 44.5481 0.111084 27.9469 0.111084 16.6386C0.111282 7.52653 7.49723 0.113281 16.576 0.113281Z" fill="#FF7C78"/>
</svg>
