<svg width="56" height="46" viewBox="0 0 56 46" fill="none" xmlns="http://www.w3.org/2000/svg">
<path fill-rule="evenodd" clip-rule="evenodd" d="M23.4404 43.6332V23.6731C23.4404 22.3694 24.4973 21.3125 25.8012 21.3125H50.7494C52.0531 21.3125 53.11 22.3694 53.11 23.6731V43.6332C53.11 44.9369 52.0531 45.994 50.7494 45.994H25.8012C24.4973 45.994 23.4404 44.9369 23.4404 43.6332Z" fill="#D7E5ED"/>
<path fill-rule="evenodd" clip-rule="evenodd" d="M25.1221 42.4835V24.9558C25.1221 23.8109 26.0504 22.8828 27.1952 22.8828H49.103C50.2479 22.8828 51.176 23.8109 51.176 24.9558V42.4835C51.176 43.6284 50.2479 44.5565 49.103 44.5565H27.1952C26.0504 44.5565 25.1221 43.6284 25.1221 42.4835Z" fill="#DFEEF6"/>
<path fill-rule="evenodd" clip-rule="evenodd" d="M48.9908 28.008C48.9908 30.1957 47.2172 31.9691 45.0295 31.9691C42.8419 31.9691 41.0684 30.1957 41.0684 28.008C41.0684 25.8202 42.8419 24.0469 45.0295 24.0469C47.2172 24.0469 48.9908 25.8202 48.9908 28.008Z" fill="#31CFA4"/>
<path fill-rule="evenodd" clip-rule="evenodd" d="M45.3414 31.78C43.1537 31.78 41.3801 30.0067 41.3801 27.8189C41.3801 26.4393 42.0858 25.2248 43.1558 24.5156C41.9132 25.1842 41.0684 26.4963 41.0684 28.006C41.0684 30.1937 42.8419 31.9671 45.0295 31.9671C45.8374 31.9671 46.5887 31.7247 47.2151 31.3093C46.6573 31.6095 46.0193 31.78 45.3414 31.78Z" fill="#23B79A"/>
<path d="M43.127 24.5469L47.2439 31.284" stroke="#23B79A" stroke-width="0.961131"/>
<path fill-rule="evenodd" clip-rule="evenodd" d="M48.9908 39.5158C48.9908 41.7035 47.2172 43.4771 45.0295 43.4771C42.8419 43.4771 41.0684 41.7035 41.0684 39.5158C41.0684 37.328 42.8419 35.5547 45.0295 35.5547C47.2172 35.5547 48.9908 37.328 48.9908 39.5158Z" fill="#31CFA4"/>
<path fill-rule="evenodd" clip-rule="evenodd" d="M45.3414 43.2878C43.1537 43.2878 41.3801 41.5145 41.3801 39.3267C41.3801 37.9471 42.0858 36.7327 43.1558 36.0234C41.9132 36.692 41.0684 38.0041 41.0684 39.5138C41.0684 41.7015 42.8419 43.4751 45.0295 43.4751C45.8374 43.4751 46.5887 43.2325 47.2151 42.8171C46.6573 43.1173 46.0193 43.2878 45.3414 43.2878Z" fill="#23B79A"/>
<path d="M43.127 36.0547L47.2439 42.7918" stroke="#23B79A" stroke-width="0.961131"/>
<path fill-rule="evenodd" clip-rule="evenodd" d="M37.18 28.008C37.18 30.1957 35.4065 31.9691 33.2187 31.9691C31.0312 31.9691 29.2578 30.1957 29.2578 28.008C29.2578 25.8202 31.0312 24.0469 33.2187 24.0469C35.4065 24.0469 37.18 25.8202 37.18 28.008Z" fill="#31CFA4"/>
<path fill-rule="evenodd" clip-rule="evenodd" d="M33.5307 31.78C31.3429 31.78 29.5696 30.0067 29.5696 27.8189C29.5696 26.4393 30.2753 25.2248 31.345 24.5156C30.1025 25.1842 29.2578 26.4963 29.2578 28.006C29.2578 30.1937 31.0312 31.9671 33.2187 31.9671C34.0268 31.9671 34.778 31.7247 35.4044 31.3093C34.8465 31.6095 34.2085 31.78 33.5307 31.78Z" fill="#23B79A"/>
<path d="M31.3164 24.5469L35.4334 31.284" stroke="#23B79A" stroke-width="0.961131"/>
<path fill-rule="evenodd" clip-rule="evenodd" d="M37.18 39.5158C37.18 41.7035 35.4065 43.4771 33.2187 43.4771C31.0312 43.4771 29.2578 41.7035 29.2578 39.5158C29.2578 37.328 31.0312 35.5547 33.2187 35.5547C35.4065 35.5547 37.18 37.328 37.18 39.5158Z" fill="#31CFA4"/>
<path fill-rule="evenodd" clip-rule="evenodd" d="M33.5307 43.2878C31.3429 43.2878 29.5696 41.5145 29.5696 39.3267C29.5696 37.9471 30.2753 36.7327 31.345 36.0234C30.1025 36.692 29.2578 38.0041 29.2578 39.5138C29.2578 41.7015 31.0312 43.4751 33.2187 43.4751C34.0268 43.4751 34.778 43.2325 35.4044 42.8171C34.8465 43.1173 34.2085 43.2878 33.5307 43.2878Z" fill="#23B79A"/>
<path d="M31.3164 36.0547L35.4334 42.7918" stroke="#23B79A" stroke-width="0.961131"/>
<path fill-rule="evenodd" clip-rule="evenodd" d="M26.2301 45.996H6.32424C5.11826 45.996 4.14062 45.0184 4.14062 43.8124V14.2539C4.14062 13.0479 5.11826 12.0703 6.32424 12.0703H26.2301C27.4361 12.0703 28.4137 13.0479 28.4137 14.2539V43.8124C28.4137 45.0184 27.4361 45.996 26.2301 45.996Z" fill="#31CFA4"/>
<path fill-rule="evenodd" clip-rule="evenodd" d="M4.14062 43.6043C4.14062 44.9253 5.21158 45.9963 6.53257 45.9963H9.96594C8.64474 45.9963 7.574 44.9253 7.574 43.6043V37.1953H4.14062V43.6043Z" fill="#23B79A"/>
<path fill-rule="evenodd" clip-rule="evenodd" d="M7.574 14.4623C7.574 13.1413 8.64495 12.0703 9.96594 12.0703H6.53257C5.21158 12.0703 4.14062 13.1413 4.14062 14.4623V22.4326H7.574V14.4623Z" fill="#23B79A"/>
<path fill-rule="evenodd" clip-rule="evenodd" d="M26.022 12.4961H6.53257C5.21158 12.4961 4.14062 13.567 4.14062 14.888V17.8901H28.4139V14.888C28.4139 13.567 27.343 12.4961 26.022 12.4961Z" fill="#23B79A"/>
<path fill-rule="evenodd" clip-rule="evenodd" d="M29.0319 16.4695H3.52185C2.89315 16.4695 2.38379 15.9599 2.38379 15.3312V12.2047C2.38379 11.576 2.89315 11.0664 3.52185 11.0664H29.0319C29.6606 11.0664 30.1702 11.576 30.1702 12.2047V15.3312C30.1702 15.9599 29.6606 16.4695 29.0319 16.4695Z" fill="#31CFA4"/>
<path fill-rule="evenodd" clip-rule="evenodd" d="M30.5186 32.8574L37.9984 40.0279C39.353 41.3266 39.3924 43.4555 38.0863 44.7833L38.0859 44.7835C36.7796 46.1117 34.622 46.1357 33.2671 44.8368L25.7874 37.6663C24.4327 36.3676 24.3935 34.2387 25.6994 32.9107L25.6996 32.9105C27.006 31.5821 29.1638 31.5583 30.5186 32.8574Z" fill="#FDE98E"/>
<path fill-rule="evenodd" clip-rule="evenodd" d="M28.3242 35.305L35.804 42.4755C36.6602 43.2964 37.8365 43.5875 38.9167 43.3565C38.7701 43.877 38.4939 44.3694 38.0863 44.7836L38.0861 44.784C36.7795 46.112 34.6219 46.136 33.2671 44.8369L25.7876 37.6664C24.4327 36.3677 24.3935 34.2388 25.6994 32.911L25.6996 32.9106C26.1805 32.4217 26.777 32.1114 27.4061 31.9766C27.0829 33.1251 27.3922 34.4117 28.3242 35.305Z" fill="#FFC501"/>
<path fill-rule="evenodd" clip-rule="evenodd" d="M29.5273 41.2509L33.2671 44.8362C34.622 46.1349 36.7791 46.1112 38.0853 44.783C39.3916 43.4547 39.3524 41.3252 37.9975 40.0267L34.2575 36.4414L29.5273 41.2509Z" fill="#F76B6D"/>
<path fill-rule="evenodd" clip-rule="evenodd" d="M33.2665 44.8372L29.5273 41.2525L31.954 38.7852L35.8034 42.4756C36.6596 43.2965 37.8359 43.5876 38.9159 43.3568C38.7625 43.9017 38.4654 44.3978 38.0857 44.7841C36.7792 46.1123 34.6213 46.1361 33.2665 44.8372Z" fill="#E25A61"/>
<path fill-rule="evenodd" clip-rule="evenodd" d="M16.261 39.3438L26.3635 39.4074C28.193 39.419 29.648 40.9 29.6133 42.7157V42.7161C29.5784 44.5322 28.0667 45.9952 26.2365 45.9837L16.1342 45.9203C14.3045 45.9085 12.8497 44.4277 12.8844 42.612V42.6116C12.9189 40.7953 14.4308 39.3323 16.261 39.3438Z" fill="#FDE98E"/>
<path fill-rule="evenodd" clip-rule="evenodd" d="M16.3465 42.5458L26.449 42.6094C27.6055 42.6167 28.6337 42.0342 29.2436 41.1468C29.4887 41.6136 29.6233 42.1476 29.6124 42.7139V42.7143C29.5777 44.5304 28.0659 45.9935 26.2356 45.9819L16.1332 45.9183C14.3035 45.9067 12.8487 44.4257 12.8834 42.6101V42.6096C12.896 41.9411 13.1101 41.3215 13.4655 40.8047C14.0064 41.8343 15.0877 42.5378 16.3465 42.5458Z" fill="#FFC501"/>
<path fill-rule="evenodd" clip-rule="evenodd" d="M21.1855 45.9514L26.237 45.9832C28.0667 45.9946 29.5781 44.532 29.6128 42.7159C29.6475 40.8998 28.1925 39.4184 26.3626 39.407L21.3111 39.375L21.1855 45.9514Z" fill="#F76B6D"/>
<path fill-rule="evenodd" clip-rule="evenodd" d="M26.2362 45.9833L21.1855 45.9515L21.2502 42.578L26.4495 42.6109C27.6059 42.6181 28.6341 42.0356 29.244 41.1484C29.5009 41.6369 29.6229 42.1876 29.6128 42.7155C29.5783 44.5318 28.0663 45.9949 26.2362 45.9833Z" fill="#E25A61"/>
<path fill-rule="evenodd" clip-rule="evenodd" d="M17.0355 37.1886H4.13867V22.4023H17.0355C18.0792 22.4023 18.9251 23.2482 18.9251 24.2917V35.2992C18.9251 36.3427 18.0792 37.1886 17.0355 37.1886Z" fill="white"/>
<path fill-rule="evenodd" clip-rule="evenodd" d="M4.13867 37.1886H7.6761V22.4023H4.13867V37.1886Z" fill="#BADEEF"/>
<path fill-rule="evenodd" clip-rule="evenodd" d="M28.1968 10.3661H4.35831C3.54069 10.3661 2.87793 9.70334 2.87793 8.88572V2.37101C2.87793 1.55339 3.54069 0.890625 4.35831 0.890625H28.1968C29.0144 0.890625 29.6772 1.55339 29.6772 2.37101V8.88572C29.6772 9.70334 29.0144 10.3661 28.1968 10.3661Z" fill="#697272"/>
<path fill-rule="evenodd" clip-rule="evenodd" d="M8.13009 8.7445V2.51223C8.13009 1.61678 8.85603 0.890625 9.75169 0.890625H4.49933C3.60387 0.890625 2.87793 1.61678 2.87793 2.51223V8.7445C2.87793 9.63995 3.60387 10.3661 4.49933 10.3661H9.75169C8.85603 10.3661 8.13009 9.63995 8.13009 8.7445Z" fill="#565A5B"/>
<path fill-rule="evenodd" clip-rule="evenodd" d="M5.26414 1.9561C5.25155 4.49753 5.23916 7.03875 5.22656 9.58018C5.22553 9.79759 5.56331 9.79779 5.56435 9.58018C5.57694 7.03875 5.58933 4.49753 5.60192 1.9561C5.60296 1.73869 5.26517 1.73849 5.26414 1.9561Z" fill="#4A5051"/>
<path fill-rule="evenodd" clip-rule="evenodd" d="M8.74559 1.9561C8.73299 4.49753 8.7206 7.03875 8.70801 9.58018C8.70698 9.79759 9.04476 9.79779 9.04579 9.58018C9.05839 7.03875 9.07078 4.49753 9.08337 1.9561C9.0844 1.73869 8.74662 1.73849 8.74559 1.9561Z" fill="#565A5B"/>
<path fill-rule="evenodd" clip-rule="evenodd" d="M12.227 1.9561C12.2144 4.49753 12.2021 7.03875 12.1895 9.58018C12.1884 9.79759 12.5262 9.79779 12.5274 9.58018C12.5398 7.03875 12.5522 4.49753 12.5648 1.9561C12.5661 1.73869 12.2281 1.73849 12.227 1.9561Z" fill="#565A5B"/>
<path fill-rule="evenodd" clip-rule="evenodd" d="M15.7085 1.9561C15.6959 4.49753 15.6835 7.03875 15.6709 9.58018C15.6699 9.79759 16.0077 9.79779 16.0087 9.58018C16.0213 7.03875 16.0337 4.49753 16.0463 1.9561C16.0473 1.73869 15.7095 1.73849 15.7085 1.9561Z" fill="#565A5B"/>
<path fill-rule="evenodd" clip-rule="evenodd" d="M19.1889 1.9561C19.1764 4.49753 19.164 7.03875 19.1514 9.58018C19.1503 9.79759 19.4881 9.79779 19.4894 9.58018C19.502 7.03875 19.5141 4.49753 19.5267 1.9561C19.528 1.73869 19.19 1.73849 19.1889 1.9561Z" fill="#565A5B"/>
<path fill-rule="evenodd" clip-rule="evenodd" d="M22.6704 1.9561C22.6578 4.49753 22.6454 7.03875 22.6328 9.58018C22.6318 9.79759 22.9696 9.79779 22.9706 9.58018C22.9832 7.03875 22.9956 4.49753 23.0082 1.9561C23.0092 1.73869 22.6714 1.73849 22.6704 1.9561Z" fill="#565A5B"/>
<path fill-rule="evenodd" clip-rule="evenodd" d="M26.1516 1.9561C26.139 4.49753 26.1266 7.03875 26.1143 9.58018C26.113 9.79759 26.4508 9.79779 26.452 9.58018C26.4646 7.03875 26.477 4.49753 26.4894 1.9561C26.4907 1.73869 26.1529 1.73849 26.1516 1.9561Z" fill="#565A5B"/>
</svg>
